STARTFONT 2.1
FONT HanmeThin_8x4x4
SIZE 16 72 72
FONTBOUNDINGBOX 8 16 0 0
SWIDTH 8000 0
DWIDTH 8 0
STARTPROPERTIES 2
FAMILY_NAME HanmeThin_8x4x4
FONT_ASCENT 16
FONT_DESCENT 0
ENDPROPERTIES
CHARS 616
STARTCHAR U+0000
ENCODING 0
SWIDTH 8000 0
DWIDTH 8 0
BBX 8 16 0 0
BITMAP
00
00
00
00
00
00
00
00
00
00
00
00
00
00
00
00
ENDCHAR
STARTCHAR U+263A
ENCODING 9786
SWIDTH 8000 0
DWIDTH 8 0
BBX 8 16 0 0
BITMAP
00
00
7E
81
A5
81
81
81
BD
99
81
7E
00
00
00
00
ENDCHAR
STARTCHAR U+263B
ENCODING 9787
SWIDTH 8000 0
DWIDTH 8 0
BBX 8 16 0 0
BITMAP
00
00
7E
FF
DB
FF
FF
C3
E7
E7
FF
7E
00
00
00
00
ENDCHAR
STARTCHAR U+2665
ENCODING 9829
SWIDTH 8000 0
DWIDTH 8 0
BBX 8 16 0 0
BITMAP
00
00
00
36
7F
7F
7F
7F
3E
1C
08
00
00
00
00
00
ENDCHAR
STARTCHAR U+2666
ENCODING 9830
SWIDTH 8000 0
DWIDTH 8 0
BBX 8 16 0 0
BITMAP
00
00
00
08
1C
3E
7F
3E
1C
08
00
00
00
00
00
00
ENDCHAR
STARTCHAR U+2663
ENCODING 9827
SWIDTH 8000 0
DWIDTH 8 0
BBX 8 16 0 0
BITMAP
00
00
18
3C
3C
E7
E7
E7
18
18
3C
00
00
00
00
00
ENDCHAR
STARTCHAR U+2660
ENCODING 9824
SWIDTH 8000 0
DWIDTH 8 0
BBX 8 16 0 0
BITMAP
00
00
18
3C
7E
FF
FF
7E
18
18
3C
00
00
00
00
00
ENDCHAR
STARTCHAR U+2022
ENCODING 8226
SWIDTH 8000 0
DWIDTH 8 0
BBX 8 16 0 0
BITMAP
00
00
00
00
18
3C
3C
18
00
00
00
00
00
00
00
00
ENDCHAR
STARTCHAR U+25D8
ENCODING 9688
SWIDTH 8000 0
DWIDTH 8 0
BBX 8 16 0 0
BITMAP
7F
7F
7F
7F
63
41
41
41
63
7F
7F
7F
7F
7F
7F
7F
ENDCHAR
STARTCHAR U+25CB
ENCODING 9675
SWIDTH 8000 0
DWIDTH 8 0
BBX 8 16 0 0
BITMAP
00
00
00
00
1C
22
22
22
1C
00
00
00
00
00
00
00
ENDCHAR
STARTCHAR U+25D9
ENCODING 9689
SWIDTH 8000 0
DWIDTH 8 0
BBX 8 16 0 0
BITMAP
7F
7F
7F
7F
63
5D
5D
5D
63
7F
7F
7F
7F
7F
7F
7F
ENDCHAR
STARTCHAR U+2642
ENCODING 9794
SWIDTH 8000 0
DWIDTH 8 0
BBX 8 16 0 0
BITMAP
00
00
08
1C
2A
08
1C
22
41
41
22
1C
00
00
00
00
ENDCHAR
STARTCHAR U+2640
ENCODING 9792
SWIDTH 8000 0
DWIDTH 8 0
BBX 8 16 0 0
BITMAP
00
00
1C
22
41
41
22
1C
08
7F
08
08
00
00
00
00
ENDCHAR
STARTCHAR U+266A
ENCODING 9834
SWIDTH 8000 0
DWIDTH 8 0
BBX 8 16 0 0
BITMAP
00
00
18
14
12
12
12
10
30
70
70
20
00
00
00
00
ENDCHAR
STARTCHAR U+266B
ENCODING 9835
SWIDTH 8000 0
DWIDTH 8 0
BBX 8 16 0 0
BITMAP
00
00
1F
11
1F
11
11
11
13
37
77
72
20
00
00
00
ENDCHAR
STARTCHAR U+263C
ENCODING 9788
SWIDTH 8000 0
DWIDTH 8 0
BBX 8 16 0 0
BITMAP
00
00
18
18
DB
3C
E7
3C
DB
18
18
00
00
00
00
00
ENDCHAR
STARTCHAR U+25BA
ENCODING 9658
SWIDTH 8000 0
DWIDTH 8 0
BBX 8 16 0 0
BITMAP
00
00
20
30
38
3C
3E
3C
38
30
20
00
00
00
00
00
ENDCHAR
STARTCHAR U+25C4
ENCODING 9668
SWIDTH 8000 0
DWIDTH 8 0
BBX 8 16 0 0
BITMAP
00
00
02
06
0E
1E
3E
1E
0E
06
02
00
00
00
00
00
ENDCHAR
STARTCHAR U+2195
ENCODING 8597
SWIDTH 8000 0
DWIDTH 8 0
BBX 8 16 0 0
BITMAP
00
00
18
3C
7E
18
18
18
7E
3C
18
00
00
00
00
00
ENDCHAR
STARTCHAR U+203C
ENCODING 8252
SWIDTH 8000 0
DWIDTH 8 0
BBX 8 16 0 0
BITMAP
00
00
33
33
33
33
33
33
00
00
33
00
00
00
00
00
ENDCHAR
STARTCHAR U+00B6
ENCODING 182
SWIDTH 8000 0
DWIDTH 8 0
BBX 8 16 0 0
BITMAP
00
00
7F
DB
DB
DB
7B
1B
1B
1B
1B
00
00
00
00
00
ENDCHAR
STARTCHAR U+00A7
ENCODING 167
SWIDTH 8000 0
DWIDTH 8 0
BBX 8 16 0 0
BITMAP
00
3E
63
30
1C
36
63
63
36
1C
06
63
3E
00
00
00
ENDCHAR
STARTCHAR U+25AC
ENCODING 9644
SWIDTH 8000 0
DWIDTH 8 0
BBX 8 16 0 0
BITMAP
00
00
00
00
00
00
00
00
00
7E
7E
7E
00
00
00
00
ENDCHAR
STARTCHAR U+21A8
ENCODING 8616
SWIDTH 8000 0
DWIDTH 8 0
BBX 8 16 0 0
BITMAP
00
00
18
3C
7E
18
18
18
7E
3C
18
FF
00
00
00
00
ENDCHAR
STARTCHAR U+2191
ENCODING 8593
SWIDTH 8000 0
DWIDTH 8 0
BBX 8 16 0 0
BITMAP
00
00
18
3C
7E
18
18
18
18
18
18
00
00
00
00
00
ENDCHAR
STARTCHAR U+2193
ENCODING 8595
SWIDTH 8000 0
DWIDTH 8 0
BBX 8 16 0 0
BITMAP
00
00
18
18
18
18
18
18
7E
3C
18
00
00
00
00
00
ENDCHAR
STARTCHAR U+2192
ENCODING 8594
SWIDTH 8000 0
DWIDTH 8 0
BBX 8 16 0 0
BITMAP
00
00
00
00
0C
06
7F
06
0C
00
00
00
00
00
00
00
ENDCHAR
STARTCHAR U+2190
ENCODING 8592
SWIDTH 8000 0
DWIDTH 8 0
BBX 8 16 0 0
BITMAP
00
00
00
00
18
30
7F
30
18
00
00
00
00
00
00
00
ENDCHAR
STARTCHAR U+221F
ENCODING 8735
SWIDTH 8000 0
DWIDTH 8 0
BBX 8 16 0 0
BITMAP
00
00
00
80
80
80
80
80
80
FF
00
00
00
00
00
00
ENDCHAR
STARTCHAR U+2194
ENCODING 8596
SWIDTH 8000 0
DWIDTH 8 0
BBX 8 16 0 0
BITMAP
00
00
00
00
24
42
FF
42
24
00
00
00
00
00
00
00
ENDCHAR
STARTCHAR U+25B2
ENCODING 9650
SWIDTH 8000 0
DWIDTH 8 0
BBX 8 16 0 0
BITMAP
00
00
00
00
08
08
1C
1C
3E
3E
7F
00
00
00
00
00
ENDCHAR
STARTCHAR U+25BC
ENCODING 9660
SWIDTH 8000 0
DWIDTH 8 0
BBX 8 16 0 0
BITMAP
00
00
00
00
7F
3E
3E
1C
1C
08
08
00
00
00
00
00
ENDCHAR
STARTCHAR U+0020
ENCODING 32
SWIDTH 8000 0
DWIDTH 8 0
BBX 8 16 0 0
BITMAP
00
00
00
00
00
00
00
00
00
00
00
00
00
00
00
00
ENDCHAR
STARTCHAR U+0021
ENCODING 33
SWIDTH 8000 0
DWIDTH 8 0
BBX 8 16 0 0
BITMAP
00
00
10
10
10
10
10
10
10
00
10
10
00
00
00
00
ENDCHAR
STARTCHAR U+0022
ENCODING 34
SWIDTH 8000 0
DWIDTH 8 0
BBX 8 16 0 0
BITMAP
00
22
22
00
00
00
00
00
00
00
00
00
00
00
00
00
ENDCHAR
STARTCHAR U+0023
ENCODING 35
SWIDTH 8000 0
DWIDTH 8 0
BBX 8 16 0 0
BITMAP
00
00
12
12
7F
24
24
24
FE
48
48
00
00
00
00
00
ENDCHAR
STARTCHAR U+0024
ENCODING 36
SWIDTH 8000 0
DWIDTH 8 0
BBX 8 16 0 0
BITMAP
10
10
7C
92
92
50
38
14
92
92
7C
10
10
00
00
00
ENDCHAR
STARTCHAR U+0025
ENCODING 37
SWIDTH 8000 0
DWIDTH 8 0
BBX 8 16 0 0
BITMAP
00
00
00
60
91
92
64
08
10
26
49
89
06
00
00
00
ENDCHAR
STARTCHAR U+0026
ENCODING 38
SWIDTH 8000 0
DWIDTH 8 0
BBX 8 16 0 0
BITMAP
00
00
38
44
44
28
30
49
85
82
45
39
00
00
00
00
ENDCHAR
STARTCHAR U+0027
ENCODING 39
SWIDTH 8000 0
DWIDTH 8 0
BBX 8 16 0 0
BITMAP
00
10
10
20
00
00
00
00
00
00
00
00
00
00
00
00
ENDCHAR
STARTCHAR U+0028
ENCODING 40
SWIDTH 8000 0
DWIDTH 8 0
BBX 8 16 0 0
BITMAP
04
08
10
20
20
20
20
20
20
20
10
08
04
00
00
00
ENDCHAR
STARTCHAR U+0029
ENCODING 41
SWIDTH 8000 0
DWIDTH 8 0
BBX 8 16 0 0
BITMAP
20
10
08
04
04
04
04
04
04
04
08
10
20
00
00
00
ENDCHAR
STARTCHAR U+002A
ENCODING 42
SWIDTH 8000 0
DWIDTH 8 0
BBX 8 16 0 0
BITMAP
00
00
00
42
24
18
FF
18
24
42
00
00
00
00
00
00
ENDCHAR
STARTCHAR U+002B
ENCODING 43
SWIDTH 8000 0
DWIDTH 8 0
BBX 8 16 0 0
BITMAP
00
00
00
08
08
08
7F
08
08
08
00
00
00
00
00
00
ENDCHAR
STARTCHAR U+002C
ENCODING 44
SWIDTH 8000 0
DWIDTH 8 0
BBX 8 16 0 0
BITMAP
00
00
00
00
00
00
00
00
00
00
00
30
10
20
00
00
ENDCHAR
STARTCHAR U+002D
ENCODING 45
SWIDTH 8000 0
DWIDTH 8 0
BBX 8 16 0 0
BITMAP
00
00
00
00
00
00
7E
00
00
00
00
00
00
00
00
00
ENDCHAR
STARTCHAR U+002E
ENCODING 46
SWIDTH 8000 0
DWIDTH 8 0
BBX 8 16 0 0
BITMAP
00
00
00
00
00
00
00
00
00
00
00
18
00
00
00
00
ENDCHAR
STARTCHAR U+002F
ENCODING 47
SWIDTH 8000 0
DWIDTH 8 0
BBX 8 16 0 0
BITMAP
00
04
04
08
08
10
10
20
20
40
40
00
00
00
00
00
ENDCHAR
STARTCHAR U+0030
ENCODING 48
SWIDTH 8000 0
DWIDTH 8 0
BBX 8 16 0 0
BITMAP
00
00
38
44
82
82
82
82
82
44
38
00
00
00
00
00
ENDCHAR
STARTCHAR U+0031
ENCODING 49
SWIDTH 8000 0
DWIDTH 8 0
BBX 8 16 0 0
BITMAP
00
00
10
10
70
10
10
10
10
10
7C
00
00
00
00
00
ENDCHAR
STARTCHAR U+0032
ENCODING 50
SWIDTH 8000 0
DWIDTH 8 0
BBX 8 16 0 0
BITMAP
00
00
78
84
84
04
08
10
20
40
FE
00
00
00
00
00
ENDCHAR
STARTCHAR U+0033
ENCODING 51
SWIDTH 8000 0
DWIDTH 8 0
BBX 8 16 0 0
BITMAP
00
00
3C
42
42
04
1C
02
42
42
3C
00
00
00
00
00
ENDCHAR
STARTCHAR U+0034
ENCODING 52
SWIDTH 8000 0
DWIDTH 8 0
BBX 8 16 0 0
BITMAP
00
00
10
20
20
48
48
88
FE
08
08
00
00
00
00
00
ENDCHAR
STARTCHAR U+0035
ENCODING 53
SWIDTH 8000 0
DWIDTH 8 0
BBX 8 16 0 0
BITMAP
00
00
7C
40
40
40
7C
02
02
42
3C
00
00
00
00
00
ENDCHAR
STARTCHAR U+0036
ENCODING 54
SWIDTH 8000 0
DWIDTH 8 0
BBX 8 16 0 0
BITMAP
00
00
08
10
20
20
7C
42
42
42
3C
00
00
00
00
00
ENDCHAR
STARTCHAR U+0037
ENCODING 55
SWIDTH 8000 0
DWIDTH 8 0
BBX 8 16 0 0
BITMAP
00
00
7E
02
04
08
10
10
10
10
10
00
00
00
00
00
ENDCHAR
STARTCHAR U+0038
ENCODING 56
SWIDTH 8000 0
DWIDTH 8 0
BBX 8 16 0 0
BITMAP
00
00
3C
42
42
42
3C
42
42
42
3C
00
00
00
00
00
ENDCHAR
STARTCHAR U+0039
ENCODING 57
SWIDTH 8000 0
DWIDTH 8 0
BBX 8 16 0 0
BITMAP
00
00
3C
42
42
42
3E
02
02
42
3C
00
00
00
00
00
ENDCHAR
STARTCHAR U+003A
ENCODING 58
SWIDTH 8000 0
DWIDTH 8 0
BBX 8 16 0 0
BITMAP
00
00
00
00
18
00
00
00
00
18
00
00
00
00
00
00
ENDCHAR
STARTCHAR U+003B
ENCODING 59
SWIDTH 8000 0
DWIDTH 8 0
BBX 8 16 0 0
BITMAP
00
00
00
00
18
00
00
00
00
18
08
10
00
00
00
00
ENDCHAR
STARTCHAR U+003C
ENCODING 60
SWIDTH 8000 0
DWIDTH 8 0
BBX 8 16 0 0
BITMAP
00
00
04
08
10
20
40
20
10
08
04
00
00
00
00
00
ENDCHAR
STARTCHAR U+003D
ENCODING 61
SWIDTH 8000 0
DWIDTH 8 0
BBX 8 16 0 0
BITMAP
00
00
00
00
FE
00
00
FE
00
00
00
00
00
00
00
00
ENDCHAR
STARTCHAR U+003E
ENCODING 62
SWIDTH 8000 0
DWIDTH 8 0
BBX 8 16 0 0
BITMAP
00
00
40
20
10
08
04
08
10
20
40
00
00
00
00
00
ENDCHAR
STARTCHAR U+003F
ENCODING 63
SWIDTH 8000 0
DWIDTH 8 0
BBX 8 16 0 0
BITMAP
00
00
3C
42
02
04
08
10
00
10
10
00
00
00
00
00
ENDCHAR
STARTCHAR U+0040
ENCODING 64
SWIDTH 8000 0
DWIDTH 8 0
BBX 8 16 0 0
BITMAP
00
00
38
44
82
9E
A2
A2
9E
40
3C
00
00
00
00
00
ENDCHAR
STARTCHAR U+0041
ENCODING 65
SWIDTH 8000 0
DWIDTH 8 0
BBX 8 16 0 0
BITMAP
00
00
10
28
28
44
44
7C
82
82
82
00
00
00
00
00
ENDCHAR
STARTCHAR U+0042
ENCODING 66
SWIDTH 8000 0
DWIDTH 8 0
BBX 8 16 0 0
BITMAP
00
00
F8
84
82
84
F8
84
82
84
F8
00
00
00
00
00
ENDCHAR
STARTCHAR U+0043
ENCODING 67
SWIDTH 8000 0
DWIDTH 8 0
BBX 8 16 0 0
BITMAP
00
00
7C
82
82
80
80
80
82
82
7C
00
00
00
00
00
ENDCHAR
STARTCHAR U+0044
ENCODING 68
SWIDTH 8000 0
DWIDTH 8 0
BBX 8 16 0 0
BITMAP
00
00
F8
84
82
82
82
82
82
84
F8
00
00
00
00
00
ENDCHAR
STARTCHAR U+0045
ENCODING 69
SWIDTH 8000 0
DWIDTH 8 0
BBX 8 16 0 0
BITMAP
00
00
FE
80
80
80
FC
80
80
80
FE
00
00
00
00
00
ENDCHAR
STARTCHAR U+0046
ENCODING 70
SWIDTH 8000 0
DWIDTH 8 0
BBX 8 16 0 0
BITMAP
00
00
FE
80
80
80
FC
80
80
80
80
00
00
00
00
00
ENDCHAR
STARTCHAR U+0047
ENCODING 71
SWIDTH 8000 0
DWIDTH 8 0
BBX 8 16 0 0
BITMAP
00
00
7C
82
82
80
8E
82
82
46
3A
00
00
00
00
00
ENDCHAR
STARTCHAR U+0048
ENCODING 72
SWIDTH 8000 0
DWIDTH 8 0
BBX 8 16 0 0
BITMAP
00
00
82
82
82
82
FE
82
82
82
82
00
00
00
00
00
ENDCHAR
STARTCHAR U+0049
ENCODING 73
SWIDTH 8000 0
DWIDTH 8 0
BBX 8 16 0 0
BITMAP
00
00
38
10
10
10
10
10
10
10
38
00
00
00
00
00
ENDCHAR
STARTCHAR U+004A
ENCODING 74
SWIDTH 8000 0
DWIDTH 8 0
BBX 8 16 0 0
BITMAP
00
00
0E
04
04
04
04
04
84
84
78
00
00
00
00
00
ENDCHAR
STARTCHAR U+004B
ENCODING 75
SWIDTH 8000 0
DWIDTH 8 0
BBX 8 16 0 0
BITMAP
00
00
82
84
88
90
E0
90
88
84
82
00
00
00
00
00
ENDCHAR
STARTCHAR U+004C
ENCODING 76
SWIDTH 8000 0
DWIDTH 8 0
BBX 8 16 0 0
BITMAP
00
00
80
80
80
80
80
80
80
80
FE
00
00
00
00
00
ENDCHAR
STARTCHAR U+004D
ENCODING 77
SWIDTH 8000 0
DWIDTH 8 0
BBX 8 16 0 0
BITMAP
00
00
82
C6
AA
92
92
82
82
82
82
00
00
00
00
00
ENDCHAR
STARTCHAR U+004E
ENCODING 78
SWIDTH 8000 0
DWIDTH 8 0
BBX 8 16 0 0
BITMAP
00
00
82
C2
A2
A2
92
8A
8A
86
82
00
00
00
00
00
ENDCHAR
STARTCHAR U+004F
ENCODING 79
SWIDTH 8000 0
DWIDTH 8 0
BBX 8 16 0 0
BITMAP
00
00
7C
82
82
82
82
82
82
82
7C
00
00
00
00
00
ENDCHAR
STARTCHAR U+0050
ENCODING 80
SWIDTH 8000 0
DWIDTH 8 0
BBX 8 16 0 0
BITMAP
00
00
FC
82
82
82
FC
80
80
80
80
00
00
00
00
00
ENDCHAR
STARTCHAR U+0051
ENCODING 81
SWIDTH 8000 0
DWIDTH 8 0
BBX 8 16 0 0
BITMAP
00
00
38
44
82
82
82
82
92
4C
34
02
00
00
00
00
ENDCHAR
STARTCHAR U+0052
ENCODING 82
SWIDTH 8000 0
DWIDTH 8 0
BBX 8 16 0 0
BITMAP
00
00
FC
82
82
82
FC
88
84
84
82
00
00
00
00
00
ENDCHAR
STARTCHAR U+0053
ENCODING 83
SWIDTH 8000 0
DWIDTH 8 0
BBX 8 16 0 0
BITMAP
00
00
7C
82
82
80
7C
02
82
82
7C
00
00
00
00
00
ENDCHAR
STARTCHAR U+0054
ENCODING 84
SWIDTH 8000 0
DWIDTH 8 0
BBX 8 16 0 0
BITMAP
00
00
FE
92
92
10
10
10
10
10
38
00
00
00
00
00
ENDCHAR
STARTCHAR U+0055
ENCODING 85
SWIDTH 8000 0
DWIDTH 8 0
BBX 8 16 0 0
BITMAP
00
00
82
82
82
82
82
82
82
82
7C
00
00
00
00
00
ENDCHAR
STARTCHAR U+0056
ENCODING 86
SWIDTH 8000 0
DWIDTH 8 0
BBX 8 16 0 0
BITMAP
00
00
82
82
82
82
82
82
44
28
10
00
00
00
00
00
ENDCHAR
STARTCHAR U+0057
ENCODING 87
SWIDTH 8000 0
DWIDTH 8 0
BBX 8 16 0 0
BITMAP
00
00
82
82
82
82
92
92
AA
C6
82
00
00
00
00
00
ENDCHAR
STARTCHAR U+0058
ENCODING 88
SWIDTH 8000 0
DWIDTH 8 0
BBX 8 16 0 0
BITMAP
00
00
82
44
28
28
10
28
28
44
82
00
00
00
00
00
ENDCHAR
STARTCHAR U+0059
ENCODING 89
SWIDTH 8000 0
DWIDTH 8 0
BBX 8 16 0 0
BITMAP
00
00
82
82
44
44
28
10
10
10
38
00
00
00
00
00
ENDCHAR
STARTCHAR U+005A
ENCODING 90
SWIDTH 8000 0
DWIDTH 8 0
BBX 8 16 0 0
BITMAP
00
00
FE
82
84
08
10
20
42
82
FE
00
00
00
00
00
ENDCHAR
STARTCHAR U+005B
ENCODING 91
SWIDTH 8000 0
DWIDTH 8 0
BBX 8 16 0 0
BITMAP
00
3C
20
20
20
20
20
20
20
20
20
3C
00
00
00
00
ENDCHAR
STARTCHAR U+005C
ENCODING 92
SWIDTH 8000 0
DWIDTH 8 0
BBX 8 16 0 0
BITMAP
00
40
40
20
20
10
10
08
08
04
04
02
00
00
00
00
ENDCHAR
STARTCHAR U+005D
ENCODING 93
SWIDTH 8000 0
DWIDTH 8 0
BBX 8 16 0 0
BITMAP
00
3C
04
04
04
04
04
04
04
04
04
3C
00
00
00
00
ENDCHAR
STARTCHAR U+005E
ENCODING 94
SWIDTH 8000 0
DWIDTH 8 0
BBX 8 16 0 0
BITMAP
00
10
28
44
00
00
00
00
00
00
00
00
00
00
00
00
ENDCHAR
STARTCHAR U+005F
ENCODING 95
SWIDTH 8000 0
DWIDTH 8 0
BBX 8 16 0 0
BITMAP
00
00
00
00
00
00
00
00
00
00
00
00
00
FF
00
00
ENDCHAR
STARTCHAR U+0060
ENCODING 96
SWIDTH 8000 0
DWIDTH 8 0
BBX 8 16 0 0
BITMAP
00
10
10
08
00
00
00
00
00
00
00
00
00
00
00
00
ENDCHAR
STARTCHAR U+0061
ENCODING 97
SWIDTH 8000 0
DWIDTH 8 0
BBX 8 16 0 0
BITMAP
00
00
00
00
00
78
04
7C
84
84
7E
00
00
00
00
00
ENDCHAR
STARTCHAR U+0062
ENCODING 98
SWIDTH 8000 0
DWIDTH 8 0
BBX 8 16 0 0
BITMAP
00
00
80
80
80
FC
82
82
82
82
FC
00
00
00
00
00
ENDCHAR
STARTCHAR U+0063
ENCODING 99
SWIDTH 8000 0
DWIDTH 8 0
BBX 8 16 0 0
BITMAP
00
00
00
00
00
7C
82
80
80
82
7C
00
00
00
00
00
ENDCHAR
STARTCHAR U+0064
ENCODING 100
SWIDTH 8000 0
DWIDTH 8 0
BBX 8 16 0 0
BITMAP
00
00
02
02
02
7E
82
82
82
82
7E
00
00
00
00
00
ENDCHAR
STARTCHAR U+0065
ENCODING 101
SWIDTH 8000 0
DWIDTH 8 0
BBX 8 16 0 0
BITMAP
00
00
00
00
00
7C
82
FE
80
82
7C
00
00
00
00
00
ENDCHAR
STARTCHAR U+0066
ENCODING 102
SWIDTH 8000 0
DWIDTH 8 0
BBX 8 16 0 0
BITMAP
00
00
1C
22
20
20
FC
20
20
20
20
00
00
00
00
00
ENDCHAR
STARTCHAR U+0067
ENCODING 103
SWIDTH 8000 0
DWIDTH 8 0
BBX 8 16 0 0
BITMAP
00
00
00
00
00
7E
82
82
82
7E
02
82
7C
00
00
00
ENDCHAR
STARTCHAR U+0068
ENCODING 104
SWIDTH 8000 0
DWIDTH 8 0
BBX 8 16 0 0
BITMAP
00
00
80
80
80
FC
82
82
82
82
82
00
00
00
00
00
ENDCHAR
STARTCHAR U+0069
ENCODING 105
SWIDTH 8000 0
DWIDTH 8 0
BBX 8 16 0 0
BITMAP
00
00
08
08
00
38
08
08
08
08
08
00
00
00
00
00
ENDCHAR
STARTCHAR U+006A
ENCODING 106
SWIDTH 8000 0
DWIDTH 8 0
BBX 8 16 0 0
BITMAP
00
00
02
02
00
0E
02
02
02
02
02
42
3C
00
00
00
ENDCHAR
STARTCHAR U+006B
ENCODING 107
SWIDTH 8000 0
DWIDTH 8 0
BBX 8 16 0 0
BITMAP
00
00
40
40
40
42
44
58
68
44
42
00
00
00
00
00
ENDCHAR
STARTCHAR U+006C
ENCODING 108
SWIDTH 8000 0
DWIDTH 8 0
BBX 8 16 0 0
BITMAP
00
00
38
08
08
08
08
08
08
08
08
00
00
00
00
00
ENDCHAR
STARTCHAR U+006D
ENCODING 109
SWIDTH 8000 0
DWIDTH 8 0
BBX 8 16 0 0
BITMAP
00
00
00
00
00
EC
92
92
92
92
92
00
00
00
00
00
ENDCHAR
STARTCHAR U+006E
ENCODING 110
SWIDTH 8000 0
DWIDTH 8 0
BBX 8 16 0 0
BITMAP
00
00
00
00
00
BC
C2
82
82
82
82
00
00
00
00
00
ENDCHAR
STARTCHAR U+006F
ENCODING 111
SWIDTH 8000 0
DWIDTH 8 0
BBX 8 16 0 0
BITMAP
00
00
00
00
00
7C
82
82
82
82
7C
00
00
00
00
00
ENDCHAR
STARTCHAR U+0070
ENCODING 112
SWIDTH 8000 0
DWIDTH 8 0
BBX 8 16 0 0
BITMAP
00
00
00
00
00
FC
82
82
82
FC
80
80
80
00
00
00
ENDCHAR
STARTCHAR U+0071
ENCODING 113
SWIDTH 8000 0
DWIDTH 8 0
BBX 8 16 0 0
BITMAP
00
00
00
00
00
7E
82
82
82
7E
02
02
02
00
00
00
ENDCHAR
STARTCHAR U+0072
ENCODING 114
SWIDTH 8000 0
DWIDTH 8 0
BBX 8 16 0 0
BITMAP
00
00
00
00
00
BC
C2
80
80
80
80
00
00
00
00
00
ENDCHAR
STARTCHAR U+0073
ENCODING 115
SWIDTH 8000 0
DWIDTH 8 0
BBX 8 16 0 0
BITMAP
00
00
00
00
00
7C
82
70
0C
82
7C
00
00
00
00
00
ENDCHAR
STARTCHAR U+0074
ENCODING 116
SWIDTH 8000 0
DWIDTH 8 0
BBX 8 16 0 0
BITMAP
00
00
20
20
20
FC
20
20
20
22
1C
00
00
00
00
00
ENDCHAR
STARTCHAR U+0075
ENCODING 117
SWIDTH 8000 0
DWIDTH 8 0
BBX 8 16 0 0
BITMAP
00
00
00
00
00
82
82
82
82
82
7E
00
00
00
00
00
ENDCHAR
STARTCHAR U+0076
ENCODING 118
SWIDTH 8000 0
DWIDTH 8 0
BBX 8 16 0 0
BITMAP
00
00
00
00
00
82
82
44
44
28
10
00
00
00
00
00
ENDCHAR
STARTCHAR U+0077
ENCODING 119
SWIDTH 8000 0
DWIDTH 8 0
BBX 8 16 0 0
BITMAP
00
00
00
00
00
82
92
AA
AA
C6
82
00
00
00
00
00
ENDCHAR
STARTCHAR U+0078
ENCODING 120
SWIDTH 8000 0
DWIDTH 8 0
BBX 8 16 0 0
BITMAP
00
00
00
00
00
82
44
28
38
44
82
00
00
00
00
00
ENDCHAR
STARTCHAR U+0079
ENCODING 121
SWIDTH 8000 0
DWIDTH 8 0
BBX 8 16 0 0
BITMAP
00
00
00
00
00
82
82
44
28
28
10
20
40
80
00
00
ENDCHAR
STARTCHAR U+007A
ENCODING 122
SWIDTH 8000 0
DWIDTH 8 0
BBX 8 16 0 0
BITMAP
00
00
00
00
00
FE
04
18
20
40
FE
00
00
00
00
00
ENDCHAR
STARTCHAR U+007B
ENCODING 123
SWIDTH 8000 0
DWIDTH 8 0
BBX 8 16 0 0
BITMAP
00
00
0C
10
10
10
60
10
10
10
0C
00
00
00
00
00
ENDCHAR
STARTCHAR U+007C
ENCODING 124
SWIDTH 8000 0
DWIDTH 8 0
BBX 8 16 0 0
BITMAP
00
00
10
10
10
10
00
10
10
10
10
00
00
00
00
00
ENDCHAR
STARTCHAR U+007D
ENCODING 125
SWIDTH 8000 0
DWIDTH 8 0
BBX 8 16 0 0
BITMAP
00
00
30
08
08
08
06
08
08
08
30
00
00
00
00
00
ENDCHAR
STARTCHAR U+007E
ENCODING 126
SWIDTH 8000 0
DWIDTH 8 0
BBX 8 16 0 0
BITMAP
00
00
72
9C
00
00
00
00
00
00
00
00
00
00
00
00
ENDCHAR
STARTCHAR U+2302
ENCODING 8962
SWIDTH 8000 0
DWIDTH 8 0
BBX 8 16 0 0
BITMAP
00
00
00
00
08
14
22
41
41
7F
00
00
00
00
00
00
ENDCHAR
STARTCHAR U+00C7
ENCODING 199
SWIDTH 8000 0
DWIDTH 8 0
BBX 8 16 0 0
BITMAP
00
00
3E
63
C0
C0
C0
C0
C1
63
3E
18
0C
04
1C
00
ENDCHAR
STARTCHAR U+00FC
ENCODING 252
SWIDTH 8000 0
DWIDTH 8 0
BBX 8 16 0 0
BITMAP
00
00
00
66
66
00
66
66
66
66
66
3B
00
00
00
00
ENDCHAR
STARTCHAR U+00E9
ENCODING 233
SWIDTH 8000 0
DWIDTH 8 0
BBX 8 16 0 0
BITMAP
00
00
06
0C
18
00
3E
63
7F
60
63
3E
00
00
00
00
ENDCHAR
STARTCHAR U+00E2
ENCODING 226
SWIDTH 8000 0
DWIDTH 8 0
BBX 8 16 0 0
BITMAP
00
00
08
1C
36
00
3C
06
3E
66
66
3B
00
00
00
00
ENDCHAR
STARTCHAR U+00E4
ENCODING 228
SWIDTH 8000 0
DWIDTH 8 0
BBX 8 16 0 0
BITMAP
00
00
00
66
66
00
3C
06
3E
66
66
3B
00
00
00
00
ENDCHAR
STARTCHAR U+00E0
ENCODING 224
SWIDTH 8000 0
DWIDTH 8 0
BBX 8 16 0 0
BITMAP
00
00
30
18
0C
00
3C
06
3E
66
66
3B
00
00
00
00
ENDCHAR
STARTCHAR U+00E5
ENCODING 229
SWIDTH 8000 0
DWIDTH 8 0
BBX 8 16 0 0
BITMAP
00
00
1C
36
1C
00
3C
06
3E
66
66
3B
00
00
00
00
ENDCHAR
STARTCHAR U+00E7
ENCODING 231
SWIDTH 8000 0
DWIDTH 8 0
BBX 8 16 0 0
BITMAP
00
00
00
00
00
00
3C
66
60
66
3C
0C
06
3C
00
00
ENDCHAR
STARTCHAR U+00EA
ENCODING 234
SWIDTH 8000 0
DWIDTH 8 0
BBX 8 16 0 0
BITMAP
00
00
08
1C
36
00
3E
63
7F
60
63
3E
00
00
00
00
ENDCHAR
STARTCHAR U+00EB
ENCODING 235
SWIDTH 8000 0
DWIDTH 8 0
BBX 8 16 0 0
BITMAP
00
00
00
66
66
00
3E
63
7F
60
63
3E
00
00
00
00
ENDCHAR
STARTCHAR U+00E8
ENCODING 232
SWIDTH 8000 0
DWIDTH 8 0
BBX 8 16 0 0
BITMAP
00
00
30
18
0C
00
3E
63
7F
60
63
3E
00
00
00
00
ENDCHAR
STARTCHAR U+00EF
ENCODING 239
SWIDTH 8000 0
DWIDTH 8 0
BBX 8 16 0 0
BITMAP
00
00
00
66
66
00
38
18
18
18
18
3C
00
00
00
00
ENDCHAR
STARTCHAR U+00EE
ENCODING 238
SWIDTH 8000 0
DWIDTH 8 0
BBX 8 16 0 0
BITMAP
00
00
18
3C
66
00
38
18
18
18
18
3C
00
00
00
00
ENDCHAR
STARTCHAR U+00EC
ENCODING 236
SWIDTH 8000 0
DWIDTH 8 0
BBX 8 16 0 0
BITMAP
00
00
30
18
0C
00
1C
0C
0C
0C
0C
1E
00
00
00
00
ENDCHAR
STARTCHAR U+00C4
ENCODING 196
SWIDTH 8000 0
DWIDTH 8 0
BBX 8 16 0 0
BITMAP
00
63
63
00
08
1C
36
63
63
7F
63
63
00
00
00
00
ENDCHAR
STARTCHAR U+00C5
ENCODING 197
SWIDTH 8000 0
DWIDTH 8 0
BBX 8 16 0 0
BITMAP
00
1C
36
1C
08
1C
36
63
63
7F
63
63
00
00
00
00
ENDCHAR
STARTCHAR U+00C9
ENCODING 201
SWIDTH 8000 0
DWIDTH 8 0
BBX 8 16 0 0
BITMAP
00
0C
18
30
00
7F
33
30
3E
30
33
7F
00
00
00
00
ENDCHAR
STARTCHAR U+00E6
ENCODING 230
SWIDTH 8000 0
DWIDTH 8 0
BBX 8 16 0 0
BITMAP
00
00
00
00
00
6E
BB
1B
FF
D8
D9
76
00
00
00
00
ENDCHAR
STARTCHAR U+00C6
ENCODING 198
SWIDTH 8000 0
DWIDTH 8 0
BBX 8 16 0 0
BITMAP
00
00
00
3F
6C
CC
CC
FF
CC
CC
CC
CF
00
00
00
00
ENDCHAR
STARTCHAR U+00F4
ENCODING 244
SWIDTH 8000 0
DWIDTH 8 0
BBX 8 16 0 0
BITMAP
00
00
08
1C
36
00
3E
63
63
63
63
3E
00
00
00
00
ENDCHAR
STARTCHAR U+00F6
ENCODING 246
SWIDTH 8000 0
DWIDTH 8 0
BBX 8 16 0 0
BITMAP
00
00
00
63
63
00
3E
63
63
63
63
3E
00
00
00
00
ENDCHAR
STARTCHAR U+00F2
ENCODING 242
SWIDTH 8000 0
DWIDTH 8 0
BBX 8 16 0 0
BITMAP
00
00
30
18
0C
00
3E
63
63
63
63
3E
00
00
00
00
ENDCHAR
STARTCHAR U+00FB
ENCODING 251
SWIDTH 8000 0
DWIDTH 8 0
BBX 8 16 0 0
BITMAP
00
00
30
78
CC
00
CC
CC
CC
CC
CC
76
00
00
00
00
ENDCHAR
STARTCHAR U+00F9
ENCODING 249
SWIDTH 8000 0
DWIDTH 8 0
BBX 8 16 0 0
BITMAP
00
00
60
30
18
00
CC
CC
CC
CC
CC
76
00
00
00
00
ENDCHAR
STARTCHAR U+00FF
ENCODING 255
SWIDTH 8000 0
DWIDTH 8 0
BBX 8 16 0 0
BITMAP
00
00
00
C6
C6
00
C6
C6
C6
C6
7E
06
0C
78
00
00
ENDCHAR
STARTCHAR U+00D6
ENCODING 214
SWIDTH 8000 0
DWIDTH 8 0
BBX 8 16 0 0
BITMAP
00
C6
C6
00
38
6C
C6
C6
C6
C6
6C
38
00
00
00
00
ENDCHAR
STARTCHAR U+00DC
ENCODING 220
SWIDTH 8000 0
DWIDTH 8 0
BBX 8 16 0 0
BITMAP
00
00
C6
C6
00
C6
C6
C6
C6
C6
C6
7C
00
00
00
00
ENDCHAR
STARTCHAR U+00A2
ENCODING 162
SWIDTH 8000 0
DWIDTH 8 0
BBX 8 16 0 0
BITMAP
00
00
18
18
7E
DA
D8
D8
DA
7E
18
18
00
00
00
00
ENDCHAR
STARTCHAR U+00A3
ENCODING 163
SWIDTH 8000 0
DWIDTH 8 0
BBX 8 16 0 0
BITMAP
00
00
38
6C
64
60
F8
60
60
60
E6
FC
00
00
00
00
ENDCHAR
STARTCHAR U+00A5
ENCODING 165
SWIDTH 8000 0
DWIDTH 8 0
BBX 8 16 0 0
BITMAP
00
00
C3
66
3C
18
7E
18
7E
18
18
00
00
00
00
00
ENDCHAR
STARTCHAR U+20A7
ENCODING 8359
SWIDTH 8000 0
DWIDTH 8 0
BBX 8 16 0 0
BITMAP
00
00
FC
66
66
7C
60
64
6F
64
64
F7
00
00
00
00
ENDCHAR
STARTCHAR U+0192
ENCODING 402
SWIDTH 8000 0
DWIDTH 8 0
BBX 8 16 0 0
BITMAP
00
00
0E
1A
18
18
18
7E
18
18
18
18
58
70
00
00
ENDCHAR
STARTCHAR U+00E1
ENCODING 225
SWIDTH 8000 0
DWIDTH 8 0
BBX 8 16 0 0
BITMAP
00
00
18
30
60
00
78
0C
7C
CC
CC
76
00
00
00
00
ENDCHAR
STARTCHAR U+00ED
ENCODING 237
SWIDTH 8000 0
DWIDTH 8 0
BBX 8 16 0 0
BITMAP
00
00
0C
18
30
00
38
18
18
18
18
3C
00
00
00
00
ENDCHAR
STARTCHAR U+00F3
ENCODING 243
SWIDTH 8000 0
DWIDTH 8 0
BBX 8 16 0 0
BITMAP
00
00
18
30
60
00
7C
C6
C6
C6
C6
7C
00
00
00
00
ENDCHAR
STARTCHAR U+00FA
ENCODING 250
SWIDTH 8000 0
DWIDTH 8 0
BBX 8 16 0 0
BITMAP
00
00
18
30
60
00
CC
CC
CC
CC
CC
76
00
00
00
00
ENDCHAR
STARTCHAR U+00F1
ENCODING 241
SWIDTH 8000 0
DWIDTH 8 0
BBX 8 16 0 0
BITMAP
00
00
00
76
DC
00
DC
66
66
66
66
66
00
00
00
00
ENDCHAR
STARTCHAR U+00D1
ENCODING 209
SWIDTH 8000 0
DWIDTH 8 0
BBX 8 16 0 0
BITMAP
00
76
DC
00
C6
E6
F6
FE
DE
CE
C6
C6
00
00
00
00
ENDCHAR
STARTCHAR U+00AA
ENCODING 170
SWIDTH 8000 0
DWIDTH 8 0
BBX 8 16 0 0
BITMAP
00
00
00
70
90
90
78
00
F8
00
00
00
00
00
00
00
ENDCHAR
STARTCHAR U+00BA
ENCODING 186
SWIDTH 8000 0
DWIDTH 8 0
BBX 8 16 0 0
BITMAP
00
00
00
60
90
90
60
00
F0
00
00
00
00
00
00
00
ENDCHAR
STARTCHAR U+00BF
ENCODING 191
SWIDTH 8000 0
DWIDTH 8 0
BBX 8 16 0 0
BITMAP
00
00
00
00
30
30
00
30
30
60
C6
C6
7C
00
00
00
ENDCHAR
STARTCHAR U+2310
ENCODING 8976
SWIDTH 8000 0
DWIDTH 8 0
BBX 8 16 0 0
BITMAP
00
00
00
00
00
00
FE
C0
C0
C0
C0
C0
00
00
00
00
ENDCHAR
STARTCHAR U+00AC
ENCODING 172
SWIDTH 8000 0
DWIDTH 8 0
BBX 8 16 0 0
BITMAP
00
00
00
00
00
00
7F
03
03
03
03
03
00
00
00
00
ENDCHAR
STARTCHAR U+00BD
ENCODING 189
SWIDTH 8000 0
DWIDTH 8 0
BBX 8 16 0 0
BITMAP
00
00
40
40
40
44
48
10
2C
52
82
04
08
1E
00
00
ENDCHAR
STARTCHAR U+00BC
ENCODING 188
SWIDTH 8000 0
DWIDTH 8 0
BBX 8 16 0 0
BITMAP
00
00
40
40
40
44
48
10
24
4C
94
24
3E
04
00
00
ENDCHAR
STARTCHAR U+00A1
ENCODING 161
SWIDTH 8000 0
DWIDTH 8 0
BBX 8 16 0 0
BITMAP
00
00
00
18
18
00
18
18
3C
3C
3C
18
00
00
00
00
ENDCHAR
STARTCHAR U+00AB
ENCODING 171
SWIDTH 8000 0
DWIDTH 8 0
BBX 8 16 0 0
BITMAP
00
00
00
00
00
33
66
CC
66
33
00
00
00
00
00
00
ENDCHAR
STARTCHAR U+00BB
ENCODING 187
SWIDTH 8000 0
DWIDTH 8 0
BBX 8 16 0 0
BITMAP
00
00
00
00
00
CC
66
33
66
CC
00
00
00
00
00
00
ENDCHAR
STARTCHAR U+2591
ENCODING 9617
SWIDTH 8000 0
DWIDTH 8 0
BBX 8 16 0 0
BITMAP
11
44
11
44
11
44
11
44
11
44
11
44
11
44
11
44
ENDCHAR
STARTCHAR U+2592
ENCODING 9618
SWIDTH 8000 0
DWIDTH 8 0
BBX 8 16 0 0
BITMAP
2A
55
2A
55
2A
55
2A
55
2A
55
2A
55
2A
55
2A
55
ENDCHAR
STARTCHAR U+2593
ENCODING 9619
SWIDTH 8000 0
DWIDTH 8 0
BBX 8 16 0 0
BITMAP
55
7F
2A
7F
55
7F
2A
7F
55
7F
2A
7F
55
7F
2A
7F
ENDCHAR
STARTCHAR U+2502
ENCODING 9474
SWIDTH 8000 0
DWIDTH 8 0
BBX 8 16 0 0
BITMAP
18
18
18
18
18
18
18
18
18
18
18
18
18
18
18
18
ENDCHAR
STARTCHAR U+2524
ENCODING 9508
SWIDTH 8000 0
DWIDTH 8 0
BBX 8 16 0 0
BITMAP
18
18
18
18
18
18
18
F8
18
18
18
18
18
18
18
18
ENDCHAR
STARTCHAR U+2561
ENCODING 9569
SWIDTH 8000 0
DWIDTH 8 0
BBX 8 16 0 0
BITMAP
18
18
18
18
18
18
F8
18
F8
18
18
18
18
18
18
18
ENDCHAR
STARTCHAR U+2562
ENCODING 9570
SWIDTH 8000 0
DWIDTH 8 0
BBX 8 16 0 0
BITMAP
36
36
36
36
36
36
36
F6
36
36
36
36
36
36
36
36
ENDCHAR
STARTCHAR U+2556
ENCODING 9558
SWIDTH 8000 0
DWIDTH 8 0
BBX 8 16 0 0
BITMAP
00
00
00
00
00
00
00
FE
36
36
36
36
36
36
36
36
ENDCHAR
STARTCHAR U+2555
ENCODING 9557
SWIDTH 8000 0
DWIDTH 8 0
BBX 8 16 0 0
BITMAP
00
00
00
00
00
00
F8
18
F8
18
18
18
18
18
18
18
ENDCHAR
STARTCHAR U+2563
ENCODING 9571
SWIDTH 8000 0
DWIDTH 8 0
BBX 8 16 0 0
BITMAP
36
36
36
36
36
36
F6
16
F6
36
36
36
36
36
36
36
ENDCHAR
STARTCHAR U+2551
ENCODING 9553
SWIDTH 8000 0
DWIDTH 8 0
BBX 8 16 0 0
BITMAP
36
36
36
36
36
36
36
36
36
36
36
36
36
36
36
36
ENDCHAR
STARTCHAR U+2557
ENCODING 9559
SWIDTH 8000 0
DWIDTH 8 0
BBX 8 16 0 0
BITMAP
00
00
00
00
00
00
FE
06
F6
36
36
36
36
36
36
36
ENDCHAR
STARTCHAR U+255D
ENCODING 9565
SWIDTH 8000 0
DWIDTH 8 0
BBX 8 16 0 0
BITMAP
36
36
36
36
36
36
F6
06
FE
00
00
00
00
00
00
00
ENDCHAR
STARTCHAR U+255C
ENCODING 9564
SWIDTH 8000 0
DWIDTH 8 0
BBX 8 16 0 0
BITMAP
36
36
36
36
36
36
36
FE
00
00
00
00
00
00
00
00
ENDCHAR
STARTCHAR U+255B
ENCODING 9563
SWIDTH 8000 0
DWIDTH 8 0
BBX 8 16 0 0
BITMAP
18
18
18
18
18
18
F8
18
F8
00
00
00
00
00
00
00
ENDCHAR
STARTCHAR U+2510
ENCODING 9488
SWIDTH 8000 0
DWIDTH 8 0
BBX 8 16 0 0
BITMAP
00
00
00
00
00
00
00
F8
18
18
18
18
18
18
18
18
ENDCHAR
STARTCHAR U+2514
ENCODING 9492
SWIDTH 8000 0
DWIDTH 8 0
BBX 8 16 0 0
BITMAP
18
18
18
18
18
18
18
1F
00
00
00
00
00
00
00
00
ENDCHAR
STARTCHAR U+2534
ENCODING 9524
SWIDTH 8000 0
DWIDTH 8 0
BBX 8 16 0 0
BITMAP
18
18
18
18
18
18
18
FF
00
00
00
00
00
00
00
00
ENDCHAR
STARTCHAR U+252C
ENCODING 9516
SWIDTH 8000 0
DWIDTH 8 0
BBX 8 16 0 0
BITMAP
00
00
00
00
00
00
00
FF
18
18
18
18
18
18
18
18
ENDCHAR
STARTCHAR U+251C
ENCODING 9500
SWIDTH 8000 0
DWIDTH 8 0
BBX 8 16 0 0
BITMAP
18
18
18
18
18
18
18
1F
18
18
18
18
18
18
18
18
ENDCHAR
STARTCHAR U+2500
ENCODING 9472
SWIDTH 8000 0
DWIDTH 8 0
BBX 8 16 0 0
BITMAP
00
00
00
00
00
00
00
FF
00
00
00
00
00
00
00
00
ENDCHAR
STARTCHAR U+253C
ENCODING 9532
SWIDTH 8000 0
DWIDTH 8 0
BBX 8 16 0 0
BITMAP
18
18
18
18
18
18
18
FF
18
18
18
18
18
18
18
18
ENDCHAR
STARTCHAR U+255E
ENCODING 9566
SWIDTH 8000 0
DWIDTH 8 0
BBX 8 16 0 0
BITMAP
18
18
18
18
18
18
1F
18
1F
18
18
18
18
18
18
18
ENDCHAR
STARTCHAR U+255F
ENCODING 9567
SWIDTH 8000 0
DWIDTH 8 0
BBX 8 16 0 0
BITMAP
36
36
36
36
36
36
36
37
36
36
36
36
36
36
36
36
ENDCHAR
STARTCHAR U+255A
ENCODING 9562
SWIDTH 8000 0
DWIDTH 8 0
BBX 8 16 0 0
BITMAP
36
36
36
36
36
36
37
30
3F
00
00
00
00
00
00
00
ENDCHAR
STARTCHAR U+2554
ENCODING 9556
SWIDTH 8000 0
DWIDTH 8 0
BBX 8 16 0 0
BITMAP
00
00
00
00
00
00
3F
30
37
36
36
36
36
36
36
36
ENDCHAR
STARTCHAR U+2569
ENCODING 9577
SWIDTH 8000 0
DWIDTH 8 0
BBX 8 16 0 0
BITMAP
36
36
36
36
36
36
F7
00
FF
00
00
00
00
00
00
00
ENDCHAR
STARTCHAR U+2566
ENCODING 9574
SWIDTH 8000 0
DWIDTH 8 0
BBX 8 16 0 0
BITMAP
00
00
00
00
00
00
FF
00
F7
36
36
36
36
36
36
36
ENDCHAR
STARTCHAR U+2560
ENCODING 9568
SWIDTH 8000 0
DWIDTH 8 0
BBX 8 16 0 0
BITMAP
36
36
36
36
36
36
37
30
37
36
36
36
36
36
36
36
ENDCHAR
STARTCHAR U+2550
ENCODING 9552
SWIDTH 8000 0
DWIDTH 8 0
BBX 8 16 0 0
BITMAP
00
00
00
00
00
00
FF
00
FF
00
00
00
00
00
00
00
ENDCHAR
STARTCHAR U+256C
ENCODING 9580
SWIDTH 8000 0
DWIDTH 8 0
BBX 8 16 0 0
BITMAP
36
36
36
36
36
36
F7
00
F7
36
36
36
36
36
36
36
ENDCHAR
STARTCHAR U+2567
ENCODING 9575
SWIDTH 8000 0
DWIDTH 8 0
BBX 8 16 0 0
BITMAP
18
18
18
18
18
18
FF
00
FF
00
00
00
00
00
00
00
ENDCHAR
STARTCHAR U+2568
ENCODING 9576
SWIDTH 8000 0
DWIDTH 8 0
BBX 8 16 0 0
BITMAP
36
36
36
36
36
36
36
FF
00
00
00
00
00
00
00
00
ENDCHAR
STARTCHAR U+2564
ENCODING 9572
SWIDTH 8000 0
DWIDTH 8 0
BBX 8 16 0 0
BITMAP
00
00
00
00
00
00
FF
00
FF
18
18
18
18
18
18
18
ENDCHAR
STARTCHAR U+2565
ENCODING 9573
SWIDTH 8000 0
DWIDTH 8 0
BBX 8 16 0 0
BITMAP
00
00
00
00
00
00
00
FF
36
36
36
36
36
36
36
36
ENDCHAR
STARTCHAR U+2559
ENCODING 9561
SWIDTH 8000 0
DWIDTH 8 0
BBX 8 16 0 0
BITMAP
36
36
36
36
36
36
36
3F
00
00
00
00
00
00
00
00
ENDCHAR
STARTCHAR U+2558
ENCODING 9560
SWIDTH 8000 0
DWIDTH 8 0
BBX 8 16 0 0
BITMAP
18
18
18
18
18
18
1F
18
1F
00
00
00
00
00
00
00
ENDCHAR
STARTCHAR U+2552
ENCODING 9554
SWIDTH 8000 0
DWIDTH 8 0
BBX 8 16 0 0
BITMAP
00
00
00
00
00
00
1F
18
1F
18
18
18
18
18
18
18
ENDCHAR
STARTCHAR U+2553
ENCODING 9555
SWIDTH 8000 0
DWIDTH 8 0
BBX 8 16 0 0
BITMAP
00
00
00
00
00
00
00
3F
36
36
36
36
36
36
36
36
ENDCHAR
STARTCHAR U+256B
ENCODING 9579
SWIDTH 8000 0
DWIDTH 8 0
BBX 8 16 0 0
BITMAP
36
36
36
36
36
36
36
FF
36
36
36
36
36
36
36
36
ENDCHAR
STARTCHAR U+256A
ENCODING 9578
SWIDTH 8000 0
DWIDTH 8 0
BBX 8 16 0 0
BITMAP
18
18
18
18
18
18
FF
18
FF
18
18
18
18
18
18
18
ENDCHAR
STARTCHAR U+2518
ENCODING 9496
SWIDTH 8000 0
DWIDTH 8 0
BBX 8 16 0 0
BITMAP
18
18
18
18
18
18
18
F8
00
00
00
00
00
00
00
00
ENDCHAR
STARTCHAR U+250C
ENCODING 9484
SWIDTH 8000 0
DWIDTH 8 0
BBX 8 16 0 0
BITMAP
00
00
00
00
00
00
00
1F
18
18
18
18
18
18
18
18
ENDCHAR
STARTCHAR U+2588
ENCODING 9608
SWIDTH 8000 0
DWIDTH 8 0
BBX 8 16 0 0
BITMAP
FF
FF
FF
FF
FF
FF
FF
FF
FF
FF
FF
FF
FF
FF
FF
FF
ENDCHAR
STARTCHAR U+2584
ENCODING 9604
SWIDTH 8000 0
DWIDTH 8 0
BBX 8 16 0 0
BITMAP
00
00
00
00
00
00
00
00
FF
FF
FF
FF
FF
FF
FF
FF
ENDCHAR
STARTCHAR U+258C
ENCODING 9612
SWIDTH 8000 0
DWIDTH 8 0
BBX 8 16 0 0
BITMAP
F0
F0
F0
F0
F0
F0
F0
F0
F0
F0
F0
F0
F0
F0
F0
F0
ENDCHAR
STARTCHAR U+2590
ENCODING 9616
SWIDTH 8000 0
DWIDTH 8 0
BBX 8 16 0 0
BITMAP
0F
0F
0F
0F
0F
0F
0F
0F
0F
0F
0F
0F
0F
0F
0F
0F
ENDCHAR
STARTCHAR U+2580
ENCODING 9600
SWIDTH 8000 0
DWIDTH 8 0
BBX 8 16 0 0
BITMAP
FF
FF
FF
FF
FF
FF
FF
FF
00
00
00
00
00
00
00
00
ENDCHAR
STARTCHAR U+03B1
ENCODING 945
SWIDTH 8000 0
DWIDTH 8 0
BBX 8 16 0 0
BITMAP
00
00
00
00
00
79
CF
C6
C6
CF
79
00
00
00
00
00
ENDCHAR
STARTCHAR U+00DF
ENCODING 223
SWIDTH 8000 0
DWIDTH 8 0
BBX 8 16 0 0
BITMAP
00
00
1C
36
66
7C
66
66
66
7C
60
60
00
00
00
00
ENDCHAR
STARTCHAR U+0393
ENCODING 915
SWIDTH 8000 0
DWIDTH 8 0
BBX 8 16 0 0
BITMAP
00
00
7E
32
30
30
30
30
30
30
78
00
00
00
00
00
ENDCHAR
STARTCHAR U+03C0
ENCODING 960
SWIDTH 8000 0
DWIDTH 8 0
BBX 8 16 0 0
BITMAP
00
00
00
00
FE
6C
6C
6C
6C
6C
00
00
00
00
00
00
ENDCHAR
STARTCHAR U+03A3
ENCODING 931
SWIDTH 8000 0
DWIDTH 8 0
BBX 8 16 0 0
BITMAP
00
00
FE
C2
60
30
18
30
60
C2
FE
00
00
00
00
00
ENDCHAR
STARTCHAR U+03C3
ENCODING 963
SWIDTH 8000 0
DWIDTH 8 0
BBX 8 16 0 0
BITMAP
00
00
1E
38
68
CC
CC
CC
CC
CC
78
00
00
00
00
00
ENDCHAR
STARTCHAR U+00B5
ENCODING 181
SWIDTH 8000 0
DWIDTH 8 0
BBX 8 16 0 0
BITMAP
00
00
00
66
66
66
66
66
66
7C
60
60
C0
80
00
00
ENDCHAR
STARTCHAR U+03C4
ENCODING 964
SWIDTH 8000 0
DWIDTH 8 0
BBX 8 16 0 0
BITMAP
00
00
00
7E
1A
18
18
18
18
0C
00
00
00
00
00
00
ENDCHAR
STARTCHAR U+03A6
ENCODING 934
SWIDTH 8000 0
DWIDTH 8 0
BBX 8 16 0 0
BITMAP
00
00
7C
10
7C
D6
D6
D6
7C
10
7C
00
00
00
00
00
ENDCHAR
STARTCHAR U+0398
ENCODING 920
SWIDTH 8000 0
DWIDTH 8 0
BBX 8 16 0 0
BITMAP
00
00
3C
66
66
66
7E
66
66
66
3C
00
00
00
00
00
ENDCHAR
STARTCHAR U+03A9
ENCODING 937
SWIDTH 8000 0
DWIDTH 8 0
BBX 8 16 0 0
BITMAP
00
00
3C
42
C3
C3
C3
42
24
A5
E7
00
00
00
00
00
ENDCHAR
STARTCHAR U+03B4
ENCODING 948
SWIDTH 8000 0
DWIDTH 8 0
BBX 8 16 0 0
BITMAP
00
00
1C
26
20
10
1C
26
66
66
66
3C
00
00
00
00
ENDCHAR
STARTCHAR U+221E
ENCODING 8734
SWIDTH 8000 0
DWIDTH 8 0
BBX 8 16 0 0
BITMAP
00
00
00
00
6C
92
92
92
6C
00
00
00
00
00
00
00
ENDCHAR
STARTCHAR U+03C6
ENCODING 966
SWIDTH 8000 0
DWIDTH 8 0
BBX 8 16 0 0
BITMAP
00
00
18
18
7E
DB
DB
DB
DB
7E
18
18
00
00
00
00
ENDCHAR
STARTCHAR U+03B5
ENCODING 949
SWIDTH 8000 0
DWIDTH 8 0
BBX 8 16 0 0
BITMAP
00
00
3E
60
C0
C0
FE
C0
C0
60
3E
00
00
00
00
00
ENDCHAR
STARTCHAR U+2229
ENCODING 8745
SWIDTH 8000 0
DWIDTH 8 0
BBX 8 16 0 0
BITMAP
00
00
3C
66
C3
C3
C3
C3
C3
C3
C3
00
00
00
00
00
ENDCHAR
STARTCHAR U+2261
ENCODING 8801
SWIDTH 8000 0
DWIDTH 8 0
BBX 8 16 0 0
BITMAP
00
00
7E
00
00
00
7E
00
00
00
7E
00
00
00
00
00
ENDCHAR
STARTCHAR U+00B1
ENCODING 177
SWIDTH 8000 0
DWIDTH 8 0
BBX 8 16 0 0
BITMAP
00
00
10
10
10
FE
10
10
10
00
FE
00
00
00
00
00
ENDCHAR
STARTCHAR U+2265
ENCODING 8805
SWIDTH 8000 0
DWIDTH 8 0
BBX 8 16 0 0
BITMAP
00
00
80
60
18
06
18
60
80
00
FE
00
00
00
00
00
ENDCHAR
STARTCHAR U+2264
ENCODING 8804
SWIDTH 8000 0
DWIDTH 8 0
BBX 8 16 0 0
BITMAP
00
00
06
18
60
80
60
18
06
00
FE
00
00
00
00
00
ENDCHAR
STARTCHAR U+2320
ENCODING 8992
SWIDTH 8000 0
DWIDTH 8 0
BBX 8 16 0 0
BITMAP
00
00
00
0E
1B
18
18
18
18
18
18
18
18
18
18
18
ENDCHAR
STARTCHAR U+2321
ENCODING 8993
SWIDTH 8000 0
DWIDTH 8 0
BBX 8 16 0 0
BITMAP
18
18
18
18
18
18
18
18
18
18
18
D8
70
00
00
00
ENDCHAR
STARTCHAR U+00F7
ENCODING 247
SWIDTH 8000 0
DWIDTH 8 0
BBX 8 16 0 0
BITMAP
00
00
00
00
18
18
00
7E
00
18
18
00
00
00
00
00
ENDCHAR
STARTCHAR U+2248
ENCODING 8776
SWIDTH 8000 0
DWIDTH 8 0
BBX 8 16 0 0
BITMAP
00
00
00
00
00
60
92
0C
60
92
0C
00
00
00
00
00
ENDCHAR
STARTCHAR U+00B0
ENCODING 176
SWIDTH 8000 0
DWIDTH 8 0
BBX 8 16 0 0
BITMAP
00
38
44
44
44
38
00
00
00
00
00
00
00
00
00
00
ENDCHAR
STARTCHAR U+2219
ENCODING 8729
SWIDTH 8000 0
DWIDTH 8 0
BBX 8 16 0 0
BITMAP
00
00
00
00
00
00
00
18
18
00
00
00
00
00
00
00
ENDCHAR
STARTCHAR U+00B7
ENCODING 183
SWIDTH 8000 0
DWIDTH 8 0
BBX 8 16 0 0
BITMAP
00
00
00
00
00
00
00
00
18
00
00
00
00
00
00
00
ENDCHAR
STARTCHAR U+221A
ENCODING 8730
SWIDTH 8000 0
DWIDTH 8 0
BBX 8 16 0 0
BITMAP
00
00
1E
18
18
18
18
18
18
58
38
18
08
00
00
00
ENDCHAR
STARTCHAR U+207F
ENCODING 8319
SWIDTH 8000 0
DWIDTH 8 0
BBX 8 16 0 0
BITMAP
00
00
B0
48
48
48
48
00
00
00
00
00
00
00
00
00
ENDCHAR
STARTCHAR U+00B2
ENCODING 178
SWIDTH 8000 0
DWIDTH 8 0
BBX 8 16 0 0
BITMAP
00
00
30
48
08
10
20
78
00
00
00
00
00
00
00
00
ENDCHAR
STARTCHAR U+25A0
ENCODING 9632
SWIDTH 8000 0
DWIDTH 8 0
BBX 8 16 0 0
BITMAP
00
00
00
7E
7E
7E
7E
7E
7E
7E
7E
00
00
00
00
00
ENDCHAR
STARTCHAR U+00A0
ENCODING 160
SWIDTH 8000 0
DWIDTH 8 0
BBX 8 16 0 0
BITMAP
00
00
00
00
00
00
00
00
00
00
00
00
00
00
00
00
ENDCHAR
STARTCHAR U+F600
ENCODING 62976
SWIDTH 16000 0
DWIDTH 16 0
BBX 16 16 0 0
BITMAP
0000
0000
0000
0000
0000
0000
0000
0000
0000
0000
0000
0000
0000
0000
0000
0000
ENDCHAR
STARTCHAR U+F601
ENCODING 62977
SWIDTH 16000 0
DWIDTH 16 0
BBX 16 16 0 0
BITMAP
0000
1F00
0100
0100
0200
0400
0800
1000
0000
0000
0000
0000
0000
0000
0000
0000
ENDCHAR
STARTCHAR U+F602
ENCODING 62978
SWIDTH 16000 0
DWIDTH 16 0
BBX 16 16 0 0
BITMAP
0000
3F80
0480
0480
0900
1200
2400
0000
0000
0000
0000
0000
0000
0000
0000
0000
ENDCHAR
STARTCHAR U+F603
ENCODING 62979
SWIDTH 16000 0
DWIDTH 16 0
BBX 16 16 0 0
BITMAP
0000
3000
1000
1000
1000
1000
1000
0F80
0000
0000
0000
0000
0000
0000
0000
0000
ENDCHAR
STARTCHAR U+F604
ENCODING 62980
SWIDTH 16000 0
DWIDTH 16 0
BBX 16 16 0 0
BITMAP
0000
3F00
1000
1000
1000
1000
0F80
0000
0000
0000
0000
0000
0000
0000
0000
0000
ENDCHAR
STARTCHAR U+F605
ENCODING 62981
SWIDTH 16000 0
DWIDTH 16 0
BBX 16 16 0 0
BITMAP
0000
7F00
2400
2400
2400
2400
1B80
0000
0000
0000
0000
0000
0000
0000
0000
0000
ENDCHAR
STARTCHAR U+F606
ENCODING 62982
SWIDTH 16000 0
DWIDTH 16 0
BBX 16 16 0 0
BITMAP
0000
3F00
0100
3F00
2000
2000
1F00
0000
0000
0000
0000
0000
0000
0000
0000
0000
ENDCHAR
STARTCHAR U+F607
ENCODING 62983
SWIDTH 16000 0
DWIDTH 16 0
BBX 16 16 0 0
BITMAP
0000
1F80
1080
1080
1080
1080
1F80
0000
0000
0000
0000
0000
0000
0000
0000
0000
ENDCHAR
STARTCHAR U+F608
ENCODING 62984
SWIDTH 16000 0
DWIDTH 16 0
BBX 16 16 0 0
BITMAP
0000
1080
1080
1F80
1080
1080
1F80
0000
0000
0000
0000
0000
0000
0000
0000
0000
ENDCHAR
STARTCHAR U+F609
ENCODING 62985
SWIDTH 16000 0
DWIDTH 16 0
BBX 16 16 0 0
BITMAP
0000
2480
2480
3F80
2480
2480
3F80
0000
0000
0000
0000
0000
0000
0000
0000
0000
ENDCHAR
STARTCHAR U+F60A
ENCODING 62986
SWIDTH 16000 0
DWIDTH 16 0
BBX 16 16 0 0
BITMAP
0000
0400
0400
0400
0A00
1100
2080
0000
0000
0000
0000
0000
0000
0000
0000
0000
ENDCHAR
STARTCHAR U+F60B
ENCODING 62987
SWIDTH 16000 0
DWIDTH 16 0
BBX 16 16 0 0
BITMAP
0000
0900
0900
0900
0900
1680
2440
0000
0000
0000
0000
0000
0000
0000
0000
0000
ENDCHAR
STARTCHAR U+F60C
ENCODING 62988
SWIDTH 16000 0
DWIDTH 16 0
BBX 16 16 0 0
BITMAP
0000
0F00
1080
1080
1080
1080
0F00
0000
0000
0000
0000
0000
0000
0000
0000
0000
ENDCHAR
STARTCHAR U+F60D
ENCODING 62989
SWIDTH 16000 0
DWIDTH 16 0
BBX 16 16 0 0
BITMAP
0000
3F80
0400
0400
0A00
1100
2080
0000
0000
0000
0000
0000
0000
0000
0000
0000
ENDCHAR
STARTCHAR U+F60E
ENCODING 62990
SWIDTH 16000 0
DWIDTH 16 0
BBX 16 16 0 0
BITMAP
0000
7F80
1200
1200
1200
2D00
4880
0000
0000
0000
0000
0000
0000
0000
0000
0000
ENDCHAR
STARTCHAR U+F60F
ENCODING 62991
SWIDTH 16000 0
DWIDTH 16 0
BBX 16 16 0 0
BITMAP
0000
0400
3F80
0400
0A00
1100
2080
0000
0000
0000
0000
0000
0000
0000
0000
0000
ENDCHAR
STARTCHAR U+F610
ENCODING 62992
SWIDTH 16000 0
DWIDTH 16 0
BBX 16 16 0 0
BITMAP
0000
3F00
0100
3F00
0200
0400
0800
1000
0000
0000
0000
0000
0000
0000
0000
0000
ENDCHAR
STARTCHAR U+F611
ENCODING 62993
SWIDTH 16000 0
DWIDTH 16 0
BBX 16 16 0 0
BITMAP
0000
3F00
1000
1F00
1000
1000
0F80
0000
0000
0000
0000
0000
0000
0000
0000
0000
ENDCHAR
STARTCHAR U+F612
ENCODING 62994
SWIDTH 16000 0
DWIDTH 16 0
BBX 16 16 0 0
BITMAP
0000
3F80
1200
1200
1200
1200
3F80
0000
0000
0000
0000
0000
0000
0000
0000
0000
ENDCHAR
STARTCHAR U+F613
ENCODING 62995
SWIDTH 16000 0
DWIDTH 16 0
BBX 16 16 0 0
BITMAP
0400
3F80
0E00
1100
1100
1100
0E00
0000
0000
0000
0000
0000
0000
0000
0000
0000
ENDCHAR
STARTCHAR U+F614
ENCODING 62996
SWIDTH 16000 0
DWIDTH 16 0
BBX 16 16 0 0
BITMAP
0000
0000
0000
0000
0000
0000
0000
0000
0000
0000
0000
0000
0000
0000
0000
0000
ENDCHAR
STARTCHAR U+F615
ENCODING 62997
SWIDTH 16000 0
DWIDTH 16 0
BBX 16 16 0 0
BITMAP
0000
1FF0
0010
0010
0010
0010
0000
0000
0000
0000
0000
0000
0000
0000
0000
0000
ENDCHAR
STARTCHAR U+F616
ENCODING 62998
SWIDTH 16000 0
DWIDTH 16 0
BBX 16 16 0 0
BITMAP
0000
1EF0
0210
0210
0210
0210
0000
0000
0000
0000
0000
0000
0000
0000
0000
0000
ENDCHAR
STARTCHAR U+F617
ENCODING 62999
SWIDTH 16000 0
DWIDTH 16 0
BBX 16 16 0 0
BITMAP
0000
1800
0800
0800
0800
07F0
0000
0000
0000
0000
0000
0000
0000
0000
0000
0000
ENDCHAR
STARTCHAR U+F618
ENCODING 63000
SWIDTH 16000 0
DWIDTH 16 0
BBX 16 16 0 0
BITMAP
0000
1FF0
0800
0800
0800
07F0
0000
0000
0000
0000
0000
0000
0000
0000
0000
0000
ENDCHAR
STARTCHAR U+F619
ENCODING 63001
SWIDTH 16000 0
DWIDTH 16 0
BBX 16 16 0 0
BITMAP
0000
1FF0
0880
0880
0880
0770
0000
0000
0000
0000
0000
0000
0000
0000
0000
0000
ENDCHAR
STARTCHAR U+F61A
ENCODING 63002
SWIDTH 16000 0
DWIDTH 16 0
BBX 16 16 0 0
BITMAP
0000
1FF0
0010
1FF0
1000
0FF0
0000
0000
0000
0000
0000
0000
0000
0000
0000
0000
ENDCHAR
STARTCHAR U+F61B
ENCODING 63003
SWIDTH 16000 0
DWIDTH 16 0
BBX 16 16 0 0
BITMAP
0000
1FE0
0820
0820
0820
0FE0
0000
0000
0000
0000
0000
0000
0000
0000
0000
0000
ENDCHAR
STARTCHAR U+F61C
ENCODING 63004
SWIDTH 16000 0
DWIDTH 16 0
BBX 16 16 0 0
BITMAP
0000
0820
0820
0FE0
0820
0FE0
0000
0000
0000
0000
0000
0000
0000
0000
0000
0000
ENDCHAR
STARTCHAR U+F61D
ENCODING 63005
SWIDTH 16000 0
DWIDTH 16 0
BBX 16 16 0 0
BITMAP
0000
0920
0920
0FE0
0920
0FE0
0000
0000
0000
0000
0000
0000
0000
0000
0000
0000
ENDCHAR
STARTCHAR U+F61E
ENCODING 63006
SWIDTH 16000 0
DWIDTH 16 0
BBX 16 16 0 0
BITMAP
0000
0100
0280
0440
0820
1010
0000
0000
0000
0000
0000
0000
0000
0000
0000
0000
ENDCHAR
STARTCHAR U+F61F
ENCODING 63007
SWIDTH 16000 0
DWIDTH 16 0
BBX 16 16 0 0
BITMAP
0000
0440
0440
0440
0AA0
1110
0000
0000
0000
0000
0000
0000
0000
0000
0000
0000
ENDCHAR
STARTCHAR U+F620
ENCODING 63008
SWIDTH 16000 0
DWIDTH 16 0
BBX 16 16 0 0
BITMAP
0000
07C0
0820
0820
0820
07C0
0000
0000
0000
0000
0000
0000
0000
0000
0000
0000
ENDCHAR
STARTCHAR U+F621
ENCODING 63009
SWIDTH 16000 0
DWIDTH 16 0
BBX 16 16 0 0
BITMAP
0000
1FF0
0280
0440
0820
1010
0000
0000
0000
0000
0000
0000
0000
0000
0000
0000
ENDCHAR
STARTCHAR U+F622
ENCODING 63010
SWIDTH 16000 0
DWIDTH 16 0
BBX 16 16 0 0
BITMAP
0000
1FF8
0240
05A0
0910
1208
0000
0000
0000
0000
0000
0000
0000
0000
0000
0000
ENDCHAR
STARTCHAR U+F623
ENCODING 63011
SWIDTH 16000 0
DWIDTH 16 0
BBX 16 16 0 0
BITMAP
0100
1FF0
0280
0440
0820
1010
0000
0000
0000
0000
0000
0000
0000
0000
0000
0000
ENDCHAR
STARTCHAR U+F624
ENCODING 63012
SWIDTH 16000 0
DWIDTH 16 0
BBX 16 16 0 0
BITMAP
0000
1FF0
0010
1FF0
0010
0010
0000
0000
0000
0000
0000
0000
0000
0000
0000
0000
ENDCHAR
STARTCHAR U+F625
ENCODING 63013
SWIDTH 16000 0
DWIDTH 16 0
BBX 16 16 0 0
BITMAP
0000
1FF0
0800
0FF0
0800
07F0
0000
0000
0000
0000
0000
0000
0000
0000
0000
0000
ENDCHAR
STARTCHAR U+F626
ENCODING 63014
SWIDTH 16000 0
DWIDTH 16 0
BBX 16 16 0 0
BITMAP
0000
1FF0
0440
0440
0440
1FF0
0000
0000
0000
0000
0000
0000
0000
0000
0000
0000
ENDCHAR
STARTCHAR U+F627
ENCODING 63015
SWIDTH 16000 0
DWIDTH 16 0
BBX 16 16 0 0
BITMAP
0100
1FF0
07C0
0820
0820
07C0
0000
0000
0000
0000
0000
0000
0000
0000
0000
0000
ENDCHAR
STARTCHAR U+F628
ENCODING 63016
SWIDTH 16000 0
DWIDTH 16 0
BBX 16 16 0 0
BITMAP
0000
0000
0000
0000
0000
0000
0000
0000
0000
0000
0000
0000
0000
0000
0000
0000
ENDCHAR
STARTCHAR U+F629
ENCODING 63017
SWIDTH 16000 0
DWIDTH 16 0
BBX 16 16 0 0
BITMAP
0000
1FF0
0010
0010
0010
0010
0000
0000
0000
0000
0000
0000
0000
0000
0000
0000
ENDCHAR
STARTCHAR U+F62A
ENCODING 63018
SWIDTH 16000 0
DWIDTH 16 0
BBX 16 16 0 0
BITMAP
0000
1EF0
0210
0210
0210
0210
0000
0000
0000
0000
0000
0000
0000
0000
0000
0000
ENDCHAR
STARTCHAR U+F62B
ENCODING 63019
SWIDTH 16000 0
DWIDTH 16 0
BBX 16 16 0 0
BITMAP
0000
1800
0800
0800
0800
07F0
0000
0000
0000
0000
0000
0000
0000
0000
0000
0000
ENDCHAR
STARTCHAR U+F62C
ENCODING 63020
SWIDTH 16000 0
DWIDTH 16 0
BBX 16 16 0 0
BITMAP
0000
1FF0
0800
0800
0800
07F0
0000
0000
0000
0000
0000
0000
0000
0000
0000
0000
ENDCHAR
STARTCHAR U+F62D
ENCODING 63021
SWIDTH 16000 0
DWIDTH 16 0
BBX 16 16 0 0
BITMAP
0000
1FF0
0880
0880
0880
0770
0000
0000
0000
0000
0000
0000
0000
0000
0000
0000
ENDCHAR
STARTCHAR U+F62E
ENCODING 63022
SWIDTH 16000 0
DWIDTH 16 0
BBX 16 16 0 0
BITMAP
0000
1FF0
0010
1FF0
1000
0FF0
0000
0000
0000
0000
0000
0000
0000
0000
0000
0000
ENDCHAR
STARTCHAR U+F62F
ENCODING 63023
SWIDTH 16000 0
DWIDTH 16 0
BBX 16 16 0 0
BITMAP
0000
1FE0
0820
0820
0820
0FE0
0000
0000
0000
0000
0000
0000
0000
0000
0000
0000
ENDCHAR
STARTCHAR U+F630
ENCODING 63024
SWIDTH 16000 0
DWIDTH 16 0
BBX 16 16 0 0
BITMAP
0000
0820
0820
0FE0
0820
0FE0
0000
0000
0000
0000
0000
0000
0000
0000
0000
0000
ENDCHAR
STARTCHAR U+F631
ENCODING 63025
SWIDTH 16000 0
DWIDTH 16 0
BBX 16 16 0 0
BITMAP
0000
0920
0920
0FE0
0920
0FE0
0000
0000
0000
0000
0000
0000
0000
0000
0000
0000
ENDCHAR
STARTCHAR U+F632
ENCODING 63026
SWIDTH 16000 0
DWIDTH 16 0
BBX 16 16 0 0
BITMAP
0000
0100
0280
0440
0820
1010
0000
0000
0000
0000
0000
0000
0000
0000
0000
0000
ENDCHAR
STARTCHAR U+F633
ENCODING 63027
SWIDTH 16000 0
DWIDTH 16 0
BBX 16 16 0 0
BITMAP
0000
0440
0440
0440
0AA0
1110
0000
0000
0000
0000
0000
0000
0000
0000
0000
0000
ENDCHAR
STARTCHAR U+F634
ENCODING 63028
SWIDTH 16000 0
DWIDTH 16 0
BBX 16 16 0 0
BITMAP
0000
07C0
0820
0820
0820
07C0
0000
0000
0000
0000
0000
0000
0000
0000
0000
0000
ENDCHAR
STARTCHAR U+F635
ENCODING 63029
SWIDTH 16000 0
DWIDTH 16 0
BBX 16 16 0 0
BITMAP
0000
1FF0
0280
0440
0820
1010
0000
0000
0000
0000
0000
0000
0000
0000
0000
0000
ENDCHAR
STARTCHAR U+F636
ENCODING 63030
SWIDTH 16000 0
DWIDTH 16 0
BBX 16 16 0 0
BITMAP
0000
1FF8
0240
05A0
0910
1208
0000
0000
0000
0000
0000
0000
0000
0000
0000
0000
ENDCHAR
STARTCHAR U+F637
ENCODING 63031
SWIDTH 16000 0
DWIDTH 16 0
BBX 16 16 0 0
BITMAP
0100
1FF0
0280
0440
0820
1010
0000
0000
0000
0000
0000
0000
0000
0000
0000
0000
ENDCHAR
STARTCHAR U+F638
ENCODING 63032
SWIDTH 16000 0
DWIDTH 16 0
BBX 16 16 0 0
BITMAP
0000
1FF0
0010
1FF0
0010
0010
0000
0000
0000
0000
0000
0000
0000
0000
0000
0000
ENDCHAR
STARTCHAR U+F639
ENCODING 63033
SWIDTH 16000 0
DWIDTH 16 0
BBX 16 16 0 0
BITMAP
0000
1FF0
0800
0FF0
0800
07F0
0000
0000
0000
0000
0000
0000
0000
0000
0000
0000
ENDCHAR
STARTCHAR U+F63A
ENCODING 63034
SWIDTH 16000 0
DWIDTH 16 0
BBX 16 16 0 0
BITMAP
0000
1FF0
0440
0440
0440
1FF0
0000
0000
0000
0000
0000
0000
0000
0000
0000
0000
ENDCHAR
STARTCHAR U+F63B
ENCODING 63035
SWIDTH 16000 0
DWIDTH 16 0
BBX 16 16 0 0
BITMAP
0100
1FF0
07C0
0820
0820
07C0
0000
0000
0000
0000
0000
0000
0000
0000
0000
0000
ENDCHAR
STARTCHAR U+F63C
ENCODING 63036
SWIDTH 16000 0
DWIDTH 16 0
BBX 16 16 0 0
BITMAP
0000
0000
0000
0000
0000
0000
0000
0000
0000
0000
0000
0000
0000
0000
0000
0000
ENDCHAR
STARTCHAR U+F63D
ENCODING 63037
SWIDTH 16000 0
DWIDTH 16 0
BBX 16 16 0 0
BITMAP
0000
1F80
0080
0080
0080
0080
0000
0000
0000
0000
0000
0000
0000
0000
0000
0000
ENDCHAR
STARTCHAR U+F63E
ENCODING 63038
SWIDTH 16000 0
DWIDTH 16 0
BBX 16 16 0 0
BITMAP
0000
3B80
0880
0880
0880
0880
0000
0000
0000
0000
0000
0000
0000
0000
0000
0000
ENDCHAR
STARTCHAR U+F63F
ENCODING 63039
SWIDTH 16000 0
DWIDTH 16 0
BBX 16 16 0 0
BITMAP
0000
3000
1000
1000
1000
0FC0
0000
0000
0000
0000
0000
0000
0000
0000
0000
0000
ENDCHAR
STARTCHAR U+F640
ENCODING 63040
SWIDTH 16000 0
DWIDTH 16 0
BBX 16 16 0 0
BITMAP
0000
3F80
1000
1000
1000
0F80
0000
0000
0000
0000
0000
0000
0000
0000
0000
0000
ENDCHAR
STARTCHAR U+F641
ENCODING 63041
SWIDTH 16000 0
DWIDTH 16 0
BBX 16 16 0 0
BITMAP
0000
3FC0
1200
1200
1200
0DC0
0000
0000
0000
0000
0000
0000
0000
0000
0000
0000
ENDCHAR
STARTCHAR U+F642
ENCODING 63042
SWIDTH 16000 0
DWIDTH 16 0
BBX 16 16 0 0
BITMAP
0000
3F80
0080
3F80
2000
1F80
0000
0000
0000
0000
0000
0000
0000
0000
0000
0000
ENDCHAR
STARTCHAR U+F643
ENCODING 63043
SWIDTH 16000 0
DWIDTH 16 0
BBX 16 16 0 0
BITMAP
0000
1F80
1080
1080
1080
1F80
0000
0000
0000
0000
0000
0000
0000
0000
0000
0000
ENDCHAR
STARTCHAR U+F644
ENCODING 63044
SWIDTH 16000 0
DWIDTH 16 0
BBX 16 16 0 0
BITMAP
0000
1080
1080
1F80
1080
1F80
0000
0000
0000
0000
0000
0000
0000
0000
0000
0000
ENDCHAR
STARTCHAR U+F645
ENCODING 63045
SWIDTH 16000 0
DWIDTH 16 0
BBX 16 16 0 0
BITMAP
0000
2480
2480
3F80
2480
3F80
0000
0000
0000
0000
0000
0000
0000
0000
0000
0000
ENDCHAR
STARTCHAR U+F646
ENCODING 63046
SWIDTH 16000 0
DWIDTH 16 0
BBX 16 16 0 0
BITMAP
0000
0200
0200
0500
0880
1040
0000
0000
0000
0000
0000
0000
0000
0000
0000
0000
ENDCHAR
STARTCHAR U+F647
ENCODING 63047
SWIDTH 16000 0
DWIDTH 16 0
BBX 16 16 0 0
BITMAP
0000
0900
0900
0900
1680
2440
0000
0000
0000
0000
0000
0000
0000
0000
0000
0000
ENDCHAR
STARTCHAR U+F648
ENCODING 63048
SWIDTH 16000 0
DWIDTH 16 0
BBX 16 16 0 0
BITMAP
0000
0F00
1080
1080
1080
0F00
0000
0000
0000
0000
0000
0000
0000
0000
0000
0000
ENDCHAR
STARTCHAR U+F649
ENCODING 63049
SWIDTH 16000 0
DWIDTH 16 0
BBX 16 16 0 0
BITMAP
0000
1FC0
0200
0500
0880
1040
0000
0000
0000
0000
0000
0000
0000
0000
0000
0000
ENDCHAR
STARTCHAR U+F64A
ENCODING 63050
SWIDTH 16000 0
DWIDTH 16 0
BBX 16 16 0 0
BITMAP
0000
3FE0
0900
0D80
1240
2420
0000
0000
0000
0000
0000
0000
0000
0000
0000
0000
ENDCHAR
STARTCHAR U+F64B
ENCODING 63051
SWIDTH 16000 0
DWIDTH 16 0
BBX 16 16 0 0
BITMAP
0000
0200
1FC0
0500
0880
1040
0000
0000
0000
0000
0000
0000
0000
0000
0000
0000
ENDCHAR
STARTCHAR U+F64C
ENCODING 63052
SWIDTH 16000 0
DWIDTH 16 0
BBX 16 16 0 0
BITMAP
0000
1F80
0080
1F80
0080
0080
0000
0000
0000
0000
0000
0000
0000
0000
0000
0000
ENDCHAR
STARTCHAR U+F64D
ENCODING 63053
SWIDTH 16000 0
DWIDTH 16 0
BBX 16 16 0 0
BITMAP
0000
3F80
1000
1F80
1000
0F80
0000
0000
0000
0000
0000
0000
0000
0000
0000
0000
ENDCHAR
STARTCHAR U+F64E
ENCODING 63054
SWIDTH 16000 0
DWIDTH 16 0
BBX 16 16 0 0
BITMAP
0000
3FC0
0900
0900
0900
3FC0
0000
0000
0000
0000
0000
0000
0000
0000
0000
0000
ENDCHAR
STARTCHAR U+F64F
ENCODING 63055
SWIDTH 16000 0
DWIDTH 16 0
BBX 16 16 0 0
BITMAP
0600
3FC0
0F00
1080
1080
0F00
0000
0000
0000
0000
0000
0000
0000
0000
0000
0000
ENDCHAR
STARTCHAR U+F650
ENCODING 63056
SWIDTH 16000 0
DWIDTH 16 0
BBX 16 16 0 0
BITMAP
0000
0000
0000
0000
0000
0000
0000
0000
0000
0000
0000
0000
0000
0000
0000
0000
ENDCHAR
STARTCHAR U+F651
ENCODING 63057
SWIDTH 16000 0
DWIDTH 16 0
BBX 16 16 0 0
BITMAP
0000
1F80
0080
0080
0080
0080
0000
0000
0000
0000
0000
0000
0000
0000
0000
0000
ENDCHAR
STARTCHAR U+F652
ENCODING 63058
SWIDTH 16000 0
DWIDTH 16 0
BBX 16 16 0 0
BITMAP
0000
3B80
0880
0880
0880
0880
0000
0000
0000
0000
0000
0000
0000
0000
0000
0000
ENDCHAR
STARTCHAR U+F653
ENCODING 63059
SWIDTH 16000 0
DWIDTH 16 0
BBX 16 16 0 0
BITMAP
0000
3000
1000
1000
1000
0FC0
0000
0000
0000
0000
0000
0000
0000
0000
0000
0000
ENDCHAR
STARTCHAR U+F654
ENCODING 63060
SWIDTH 16000 0
DWIDTH 16 0
BBX 16 16 0 0
BITMAP
0000
3F80
1000
1000
1000
0F80
0000
0000
0000
0000
0000
0000
0000
0000
0000
0000
ENDCHAR
STARTCHAR U+F655
ENCODING 63061
SWIDTH 16000 0
DWIDTH 16 0
BBX 16 16 0 0
BITMAP
0000
3FC0
1200
1200
1200
0DC0
0000
0000
0000
0000
0000
0000
0000
0000
0000
0000
ENDCHAR
STARTCHAR U+F656
ENCODING 63062
SWIDTH 16000 0
DWIDTH 16 0
BBX 16 16 0 0
BITMAP
0000
3F80
0080
3F80
2000
1F80
0000
0000
0000
0000
0000
0000
0000
0000
0000
0000
ENDCHAR
STARTCHAR U+F657
ENCODING 63063
SWIDTH 16000 0
DWIDTH 16 0
BBX 16 16 0 0
BITMAP
0000
1F80
1080
1080
1080
1F80
0000
0000
0000
0000
0000
0000
0000
0000
0000
0000
ENDCHAR
STARTCHAR U+F658
ENCODING 63064
SWIDTH 16000 0
DWIDTH 16 0
BBX 16 16 0 0
BITMAP
0000
1080
1080
1F80
1080
1F80
0000
0000
0000
0000
0000
0000
0000
0000
0000
0000
ENDCHAR
STARTCHAR U+F659
ENCODING 63065
SWIDTH 16000 0
DWIDTH 16 0
BBX 16 16 0 0
BITMAP
0000
2480
2480
3F80
2480
3F80
0000
0000
0000
0000
0000
0000
0000
0000
0000
0000
ENDCHAR
STARTCHAR U+F65A
ENCODING 63066
SWIDTH 16000 0
DWIDTH 16 0
BBX 16 16 0 0
BITMAP
0000
0200
0200
0500
0880
1040
0000
0000
0000
0000
0000
0000
0000
0000
0000
0000
ENDCHAR
STARTCHAR U+F65B
ENCODING 63067
SWIDTH 16000 0
DWIDTH 16 0
BBX 16 16 0 0
BITMAP
0000
0900
0900
0900
1680
2440
0000
0000
0000
0000
0000
0000
0000
0000
0000
0000
ENDCHAR
STARTCHAR U+F65C
ENCODING 63068
SWIDTH 16000 0
DWIDTH 16 0
BBX 16 16 0 0
BITMAP
0000
0F00
1080
1080
1080
0F00
0000
0000
0000
0000
0000
0000
0000
0000
0000
0000
ENDCHAR
STARTCHAR U+F65D
ENCODING 63069
SWIDTH 16000 0
DWIDTH 16 0
BBX 16 16 0 0
BITMAP
0000
1FC0
0200
0500
0880
1040
0000
0000
0000
0000
0000
0000
0000
0000
0000
0000
ENDCHAR
STARTCHAR U+F65E
ENCODING 63070
SWIDTH 16000 0
DWIDTH 16 0
BBX 16 16 0 0
BITMAP
0000
3FE0
0900
0D80
1240
2420
0000
0000
0000
0000
0000
0000
0000
0000
0000
0000
ENDCHAR
STARTCHAR U+F65F
ENCODING 63071
SWIDTH 16000 0
DWIDTH 16 0
BBX 16 16 0 0
BITMAP
0000
0200
1FC0
0500
0880
1040
0000
0000
0000
0000
0000
0000
0000
0000
0000
0000
ENDCHAR
STARTCHAR U+F660
ENCODING 63072
SWIDTH 16000 0
DWIDTH 16 0
BBX 16 16 0 0
BITMAP
0000
1F80
0080
1F80
0080
0080
0000
0000
0000
0000
0000
0000
0000
0000
0000
0000
ENDCHAR
STARTCHAR U+F661
ENCODING 63073
SWIDTH 16000 0
DWIDTH 16 0
BBX 16 16 0 0
BITMAP
0000
3F80
1000
1F80
1000
0F80
0000
0000
0000
0000
0000
0000
0000
0000
0000
0000
ENDCHAR
STARTCHAR U+F662
ENCODING 63074
SWIDTH 16000 0
DWIDTH 16 0
BBX 16 16 0 0
BITMAP
0000
3FC0
0900
0900
0900
3FC0
0000
0000
0000
0000
0000
0000
0000
0000
0000
0000
ENDCHAR
STARTCHAR U+F663
ENCODING 63075
SWIDTH 16000 0
DWIDTH 16 0
BBX 16 16 0 0
BITMAP
0600
3FC0
0F00
1080
1080
0F00
0000
0000
0000
0000
0000
0000
0000
0000
0000
0000
ENDCHAR
STARTCHAR U+F664
ENCODING 63076
SWIDTH 16000 0
DWIDTH 16 0
BBX 16 16 0 0
BITMAP
0000
0000
0000
0000
0000
0000
0000
0000
0000
0000
0000
0000
0000
0000
0000
0000
ENDCHAR
STARTCHAR U+F665
ENCODING 63077
SWIDTH 16000 0
DWIDTH 16 0
BBX 16 16 0 0
BITMAP
0000
3E00
0200
0200
0400
0800
1000
2000
0000
0000
0000
0000
0000
0000
0000
0000
ENDCHAR
STARTCHAR U+F666
ENCODING 63078
SWIDTH 16000 0
DWIDTH 16 0
BBX 16 16 0 0
BITMAP
0000
7F00
0900
0900
1200
2400
4800
0000
0000
0000
0000
0000
0000
0000
0000
0000
ENDCHAR
STARTCHAR U+F667
ENCODING 63079
SWIDTH 16000 0
DWIDTH 16 0
BBX 16 16 0 0
BITMAP
0000
6000
2000
2000
2000
2000
1F80
0000
0000
0000
0000
0000
0000
0000
0000
0000
ENDCHAR
STARTCHAR U+F668
ENCODING 63080
SWIDTH 16000 0
DWIDTH 16 0
BBX 16 16 0 0
BITMAP
0000
7E00
2000
2000
2000
2000
1F00
0000
0000
0000
0000
0000
0000
0000
0000
0000
ENDCHAR
STARTCHAR U+F669
ENCODING 63081
SWIDTH 16000 0
DWIDTH 16 0
BBX 16 16 0 0
BITMAP
0000
7F00
2400
2400
2400
2400
1B00
0000
0000
0000
0000
0000
0000
0000
0000
0000
ENDCHAR
STARTCHAR U+F66A
ENCODING 63082
SWIDTH 16000 0
DWIDTH 16 0
BBX 16 16 0 0
BITMAP
0000
3F00
0100
3F00
2000
2000
1F00
0000
0000
0000
0000
0000
0000
0000
0000
0000
ENDCHAR
STARTCHAR U+F66B
ENCODING 63083
SWIDTH 16000 0
DWIDTH 16 0
BBX 16 16 0 0
BITMAP
0000
3F00
2100
2100
2100
2100
3F00
0000
0000
0000
0000
0000
0000
0000
0000
0000
ENDCHAR
STARTCHAR U+F66C
ENCODING 63084
SWIDTH 16000 0
DWIDTH 16 0
BBX 16 16 0 0
BITMAP
0000
2100
2100
3F00
2100
2100
3F00
0000
0000
0000
0000
0000
0000
0000
0000
0000
ENDCHAR
STARTCHAR U+F66D
ENCODING 63085
SWIDTH 16000 0
DWIDTH 16 0
BBX 16 16 0 0
BITMAP
0000
4900
4900
7F00
4900
4900
7F00
0000
0000
0000
0000
0000
0000
0000
0000
0000
ENDCHAR
STARTCHAR U+F66E
ENCODING 63086
SWIDTH 16000 0
DWIDTH 16 0
BBX 16 16 0 0
BITMAP
0000
0800
0800
0800
1400
2200
4100
0000
0000
0000
0000
0000
0000
0000
0000
0000
ENDCHAR
STARTCHAR U+F66F
ENCODING 63087
SWIDTH 16000 0
DWIDTH 16 0
BBX 16 16 0 0
BITMAP
0000
2400
2400
2400
2400
5A00
9100
0000
0000
0000
0000
0000
0000
0000
0000
0000
ENDCHAR
STARTCHAR U+F670
ENCODING 63088
SWIDTH 16000 0
DWIDTH 16 0
BBX 16 16 0 0
BITMAP
0000
1E00
2100
2100
2100
1E00
0000
0000
0000
0000
0000
0000
0000
0000
0000
0000
ENDCHAR
STARTCHAR U+F671
ENCODING 63089
SWIDTH 16000 0
DWIDTH 16 0
BBX 16 16 0 0
BITMAP
0000
7F00
0800
0800
1400
2200
4100
0000
0000
0000
0000
0000
0000
0000
0000
0000
ENDCHAR
STARTCHAR U+F672
ENCODING 63090
SWIDTH 16000 0
DWIDTH 16 0
BBX 16 16 0 0
BITMAP
0000
FF00
2400
2400
2400
5A00
9100
0000
0000
0000
0000
0000
0000
0000
0000
0000
ENDCHAR
STARTCHAR U+F673
ENCODING 63091
SWIDTH 16000 0
DWIDTH 16 0
BBX 16 16 0 0
BITMAP
0000
0800
7F00
0800
1400
2200
4100
0000
0000
0000
0000
0000
0000
0000
0000
0000
ENDCHAR
STARTCHAR U+F674
ENCODING 63092
SWIDTH 16000 0
DWIDTH 16 0
BBX 16 16 0 0
BITMAP
0000
3E00
0200
3E00
0400
0800
1000
2000
0000
0000
0000
0000
0000
0000
0000
0000
ENDCHAR
STARTCHAR U+F675
ENCODING 63093
SWIDTH 16000 0
DWIDTH 16 0
BBX 16 16 0 0
BITMAP
0000
7E00
2000
3E00
2000
2000
1F00
0000
0000
0000
0000
0000
0000
0000
0000
0000
ENDCHAR
STARTCHAR U+F676
ENCODING 63094
SWIDTH 16000 0
DWIDTH 16 0
BBX 16 16 0 0
BITMAP
0000
7F00
2400
2400
2400
2400
7F00
0000
0000
0000
0000
0000
0000
0000
0000
0000
ENDCHAR
STARTCHAR U+F677
ENCODING 63095
SWIDTH 16000 0
DWIDTH 16 0
BBX 16 16 0 0
BITMAP
0800
7F00
1C00
2200
2200
2200
1C00
0000
0000
0000
0000
0000
0000
0000
0000
0000
ENDCHAR
STARTCHAR U+F678
ENCODING 63096
SWIDTH 16000 0
DWIDTH 16 0
BBX 16 16 0 0
BITMAP
0000
0000
0000
0000
0000
0000
0000
0000
0000
0000
0000
0000
0000
0000
0000
0000
ENDCHAR
STARTCHAR U+F679
ENCODING 63097
SWIDTH 16000 0
DWIDTH 16 0
BBX 16 16 0 0
BITMAP
0000
1FF0
0010
0010
0010
0010
0000
0000
0000
0000
0000
0000
0000
0000
0000
0000
ENDCHAR
STARTCHAR U+F67A
ENCODING 63098
SWIDTH 16000 0
DWIDTH 16 0
BBX 16 16 0 0
BITMAP
0000
1EF0
0210
0210
0210
0210
0000
0000
0000
0000
0000
0000
0000
0000
0000
0000
ENDCHAR
STARTCHAR U+F67B
ENCODING 63099
SWIDTH 16000 0
DWIDTH 16 0
BBX 16 16 0 0
BITMAP
0000
1800
0800
0800
0800
07F0
0000
0000
0000
0000
0000
0000
0000
0000
0000
0000
ENDCHAR
STARTCHAR U+F67C
ENCODING 63100
SWIDTH 16000 0
DWIDTH 16 0
BBX 16 16 0 0
BITMAP
0000
1FF0
0800
0800
0800
07F0
0000
0000
0000
0000
0000
0000
0000
0000
0000
0000
ENDCHAR
STARTCHAR U+F67D
ENCODING 63101
SWIDTH 16000 0
DWIDTH 16 0
BBX 16 16 0 0
BITMAP
0000
1FF0
0880
0880
0880
0770
0000
0000
0000
0000
0000
0000
0000
0000
0000
0000
ENDCHAR
STARTCHAR U+F67E
ENCODING 63102
SWIDTH 16000 0
DWIDTH 16 0
BBX 16 16 0 0
BITMAP
0000
1FF0
0010
1FF0
1000
0FF0
0000
0000
0000
0000
0000
0000
0000
0000
0000
0000
ENDCHAR
STARTCHAR U+F67F
ENCODING 63103
SWIDTH 16000 0
DWIDTH 16 0
BBX 16 16 0 0
BITMAP
0000
1FE0
0820
0820
0820
0FE0
0000
0000
0000
0000
0000
0000
0000
0000
0000
0000
ENDCHAR
STARTCHAR U+F680
ENCODING 63104
SWIDTH 16000 0
DWIDTH 16 0
BBX 16 16 0 0
BITMAP
0000
0820
0820
0FE0
0820
0FE0
0000
0000
0000
0000
0000
0000
0000
0000
0000
0000
ENDCHAR
STARTCHAR U+F681
ENCODING 63105
SWIDTH 16000 0
DWIDTH 16 0
BBX 16 16 0 0
BITMAP
0000
0920
0920
0FE0
0920
0FE0
0000
0000
0000
0000
0000
0000
0000
0000
0000
0000
ENDCHAR
STARTCHAR U+F682
ENCODING 63106
SWIDTH 16000 0
DWIDTH 16 0
BBX 16 16 0 0
BITMAP
0000
0100
0280
0440
0820
1010
0000
0000
0000
0000
0000
0000
0000
0000
0000
0000
ENDCHAR
STARTCHAR U+F683
ENCODING 63107
SWIDTH 16000 0
DWIDTH 16 0
BBX 16 16 0 0
BITMAP
0000
0440
0440
0440
0AA0
1110
0000
0000
0000
0000
0000
0000
0000
0000
0000
0000
ENDCHAR
STARTCHAR U+F684
ENCODING 63108
SWIDTH 16000 0
DWIDTH 16 0
BBX 16 16 0 0
BITMAP
0000
07C0
0820
0820
0820
07C0
0000
0000
0000
0000
0000
0000
0000
0000
0000
0000
ENDCHAR
STARTCHAR U+F685
ENCODING 63109
SWIDTH 16000 0
DWIDTH 16 0
BBX 16 16 0 0
BITMAP
0000
1FF0
0280
0440
0820
1010
0000
0000
0000
0000
0000
0000
0000
0000
0000
0000
ENDCHAR
STARTCHAR U+F686
ENCODING 63110
SWIDTH 16000 0
DWIDTH 16 0
BBX 16 16 0 0
BITMAP
0000
1FF8
0240
05A0
0910
1208
0000
0000
0000
0000
0000
0000
0000
0000
0000
0000
ENDCHAR
STARTCHAR U+F687
ENCODING 63111
SWIDTH 16000 0
DWIDTH 16 0
BBX 16 16 0 0
BITMAP
0100
1FF0
0280
0440
0820
1010
0000
0000
0000
0000
0000
0000
0000
0000
0000
0000
ENDCHAR
STARTCHAR U+F688
ENCODING 63112
SWIDTH 16000 0
DWIDTH 16 0
BBX 16 16 0 0
BITMAP
0000
1FF0
0010
1FF0
0010
0010
0000
0000
0000
0000
0000
0000
0000
0000
0000
0000
ENDCHAR
STARTCHAR U+F689
ENCODING 63113
SWIDTH 16000 0
DWIDTH 16 0
BBX 16 16 0 0
BITMAP
0000
1FF0
0800
0FF0
0800
07F0
0000
0000
0000
0000
0000
0000
0000
0000
0000
0000
ENDCHAR
STARTCHAR U+F68A
ENCODING 63114
SWIDTH 16000 0
DWIDTH 16 0
BBX 16 16 0 0
BITMAP
0000
1FF0
0440
0440
0440
1FF0
0000
0000
0000
0000
0000
0000
0000
0000
0000
0000
ENDCHAR
STARTCHAR U+F68B
ENCODING 63115
SWIDTH 16000 0
DWIDTH 16 0
BBX 16 16 0 0
BITMAP
0100
1FF0
07C0
0820
0820
07C0
0000
0000
0000
0000
0000
0000
0000
0000
0000
0000
ENDCHAR
STARTCHAR U+F68C
ENCODING 63116
SWIDTH 16000 0
DWIDTH 16 0
BBX 16 16 0 0
BITMAP
0000
0000
0000
0000
0000
0000
0000
0000
0000
0000
0000
0000
0000
0000
0000
0000
ENDCHAR
STARTCHAR U+F68D
ENCODING 63117
SWIDTH 16000 0
DWIDTH 16 0
BBX 16 16 0 0
BITMAP
0000
3F00
0100
0100
0100
0100
0000
0000
0000
0000
0000
0000
0000
0000
0000
0000
ENDCHAR
STARTCHAR U+F68E
ENCODING 63118
SWIDTH 16000 0
DWIDTH 16 0
BBX 16 16 0 0
BITMAP
0000
7700
1100
1100
1100
1100
0000
0000
0000
0000
0000
0000
0000
0000
0000
0000
ENDCHAR
STARTCHAR U+F68F
ENCODING 63119
SWIDTH 16000 0
DWIDTH 16 0
BBX 16 16 0 0
BITMAP
0000
6000
2000
2000
2000
1F80
0000
0000
0000
0000
0000
0000
0000
0000
0000
0000
ENDCHAR
STARTCHAR U+F690
ENCODING 63120
SWIDTH 16000 0
DWIDTH 16 0
BBX 16 16 0 0
BITMAP
0000
7F00
2000
2000
2000
1F00
0000
0000
0000
0000
0000
0000
0000
0000
0000
0000
ENDCHAR
STARTCHAR U+F691
ENCODING 63121
SWIDTH 16000 0
DWIDTH 16 0
BBX 16 16 0 0
BITMAP
0000
FF80
4400
4400
4400
3B80
0000
0000
0000
0000
0000
0000
0000
0000
0000
0000
ENDCHAR
STARTCHAR U+F692
ENCODING 63122
SWIDTH 16000 0
DWIDTH 16 0
BBX 16 16 0 0
BITMAP
0000
3F00
0100
3F00
2000
1F00
0000
0000
0000
0000
0000
0000
0000
0000
0000
0000
ENDCHAR
STARTCHAR U+F693
ENCODING 63123
SWIDTH 16000 0
DWIDTH 16 0
BBX 16 16 0 0
BITMAP
0000
3E00
2200
2200
2200
3E00
0000
0000
0000
0000
0000
0000
0000
0000
0000
0000
ENDCHAR
STARTCHAR U+F694
ENCODING 63124
SWIDTH 16000 0
DWIDTH 16 0
BBX 16 16 0 0
BITMAP
0000
2200
2200
3E00
2200
3E00
0000
0000
0000
0000
0000
0000
0000
0000
0000
0000
ENDCHAR
STARTCHAR U+F695
ENCODING 63125
SWIDTH 16000 0
DWIDTH 16 0
BBX 16 16 0 0
BITMAP
0000
2A00
2A00
3E00
2A00
3E00
0000
0000
0000
0000
0000
0000
0000
0000
0000
0000
ENDCHAR
STARTCHAR U+F696
ENCODING 63126
SWIDTH 16000 0
DWIDTH 16 0
BBX 16 16 0 0
BITMAP
0000
0400
0400
0A00
1100
2080
0000
0000
0000
0000
0000
0000
0000
0000
0000
0000
ENDCHAR
STARTCHAR U+F697
ENCODING 63127
SWIDTH 16000 0
DWIDTH 16 0
BBX 16 16 0 0
BITMAP
0000
1200
1200
1200
2D00
4880
0000
0000
0000
0000
0000
0000
0000
0000
0000
0000
ENDCHAR
STARTCHAR U+F698
ENCODING 63128
SWIDTH 16000 0
DWIDTH 16 0
BBX 16 16 0 0
BITMAP
0000
0E00
1100
1100
1100
0E00
0000
0000
0000
0000
0000
0000
0000
0000
0000
0000
ENDCHAR
STARTCHAR U+F699
ENCODING 63129
SWIDTH 16000 0
DWIDTH 16 0
BBX 16 16 0 0
BITMAP
0000
3F80
0400
0A00
1100
2080
0000
0000
0000
0000
0000
0000
0000
0000
0000
0000
ENDCHAR
STARTCHAR U+F69A
ENCODING 63130
SWIDTH 16000 0
DWIDTH 16 0
BBX 16 16 0 0
BITMAP
0000
7F80
1200
1200
2D00
4880
0000
0000
0000
0000
0000
0000
0000
0000
0000
0000
ENDCHAR
STARTCHAR U+F69B
ENCODING 63131
SWIDTH 16000 0
DWIDTH 16 0
BBX 16 16 0 0
BITMAP
0000
0400
3F80
0A00
1100
2080
0000
0000
0000
0000
0000
0000
0000
0000
0000
0000
ENDCHAR
STARTCHAR U+F69C
ENCODING 63132
SWIDTH 16000 0
DWIDTH 16 0
BBX 16 16 0 0
BITMAP
0000
3F00
0100
3F00
0100
0100
0000
0000
0000
0000
0000
0000
0000
0000
0000
0000
ENDCHAR
STARTCHAR U+F69D
ENCODING 63133
SWIDTH 16000 0
DWIDTH 16 0
BBX 16 16 0 0
BITMAP
0000
7F00
2000
3F00
2000
1F00
0000
0000
0000
0000
0000
0000
0000
0000
0000
0000
ENDCHAR
STARTCHAR U+F69E
ENCODING 63134
SWIDTH 16000 0
DWIDTH 16 0
BBX 16 16 0 0
BITMAP
0000
3F00
1200
1200
1200
3F00
0000
0000
0000
0000
0000
0000
0000
0000
0000
0000
ENDCHAR
STARTCHAR U+F69F
ENCODING 63135
SWIDTH 16000 0
DWIDTH 16 0
BBX 16 16 0 0
BITMAP
0400
3F80
0E00
1100
1100
0E00
0000
0000
0000
0000
0000
0000
0000
0000
0000
0000
ENDCHAR
STARTCHAR U+F6A0
ENCODING 63136
SWIDTH 16000 0
DWIDTH 16 0
BBX 16 16 0 0
BITMAP
0000
0000
0000
0000
0000
0000
0000
0000
0000
0000
0000
0000
0000
0000
0000
0000
ENDCHAR
STARTCHAR U+F6A1
ENCODING 63137
SWIDTH 16000 0
DWIDTH 16 0
BBX 16 16 0 0
BITMAP
0000
0018
0008
0008
000F
0008
0008
0008
0008
0008
0008
0008
0008
0008
0000
0000
ENDCHAR
STARTCHAR U+F6A2
ENCODING 63138
SWIDTH 16000 0
DWIDTH 16 0
BBX 16 16 0 0
BITMAP
0000
006C
0024
0024
0024
003C
0024
0024
0024
0024
0024
0024
0024
0004
0000
0000
ENDCHAR
STARTCHAR U+F6A3
ENCODING 63139
SWIDTH 16000 0
DWIDTH 16 0
BBX 16 16 0 0
BITMAP
0000
0018
0008
000F
0008
0008
000F
0008
0008
0008
0008
0008
0008
0008
0000
0000
ENDCHAR
STARTCHAR U+F6A4
ENCODING 63140
SWIDTH 16000 0
DWIDTH 16 0
BBX 16 16 0 0
BITMAP
0000
006C
0024
0024
003C
0024
0024
003C
0024
0024
0024
0024
0024
0004
0000
0000
ENDCHAR
STARTCHAR U+F6A5
ENCODING 63141
SWIDTH 16000 0
DWIDTH 16 0
BBX 16 16 0 0
BITMAP
0000
000C
0004
0004
003C
0004
0004
0004
0004
0004
0004
0004
0004
0004
0000
0000
ENDCHAR
STARTCHAR U+F6A6
ENCODING 63142
SWIDTH 16000 0
DWIDTH 16 0
BBX 16 16 0 0
BITMAP
0000
006C
0024
0024
01E4
0024
0024
0024
0024
0024
0024
0024
0024
0004
0000
0000
ENDCHAR
STARTCHAR U+F6A7
ENCODING 63143
SWIDTH 16000 0
DWIDTH 16 0
BBX 16 16 0 0
BITMAP
0000
000C
0004
003C
0004
003C
0004
0004
0004
0004
0004
0004
0004
0004
0000
0000
ENDCHAR
STARTCHAR U+F6A8
ENCODING 63144
SWIDTH 16000 0
DWIDTH 16 0
BBX 16 16 0 0
BITMAP
0000
006C
0024
01E4
0024
01E4
0024
0024
0024
0024
0024
0024
0024
0004
0000
0000
ENDCHAR
STARTCHAR U+F6A9
ENCODING 63145
SWIDTH 16000 0
DWIDTH 16 0
BBX 16 16 0 0
BITMAP
0000
0000
0000
0000
0000
0000
0000
0300
0100
0100
3FFC
0000
0000
0000
0000
0000
ENDCHAR
STARTCHAR U+F6AA
ENCODING 63146
SWIDTH 16000 0
DWIDTH 16 0
BBX 16 16 0 0
BITMAP
0000
0030
0010
0010
0010
0010
0010
041E
0410
3FD0
0010
0010
0010
0010
0000
0000
ENDCHAR
STARTCHAR U+F6AB
ENCODING 63147
SWIDTH 16000 0
DWIDTH 16 0
BBX 16 16 0 0
BITMAP
0000
006C
0024
0024
0024
003C
0024
0424
0424
3FE4
0024
0024
0024
0004
0000
0000
ENDCHAR
STARTCHAR U+F6AC
ENCODING 63148
SWIDTH 16000 0
DWIDTH 16 0
BBX 16 16 0 0
BITMAP
0000
0018
0008
0008
0008
0008
0008
0208
0208
3FF8
0008
0008
0008
0008
0000
0000
ENDCHAR
STARTCHAR U+F6AD
ENCODING 63149
SWIDTH 16000 0
DWIDTH 16 0
BBX 16 16 0 0
BITMAP
0000
0000
0000
0000
0000
0000
0000
0440
0440
0440
7FFC
0000
0000
0000
0000
0000
ENDCHAR
STARTCHAR U+F6AE
ENCODING 63150
SWIDTH 16000 0
DWIDTH 16 0
BBX 16 16 0 0
BITMAP
0000
0000
0000
0000
0000
0000
0000
0000
3FFC
0100
0100
0100
0100
0100
0100
0000
ENDCHAR
STARTCHAR U+F6AF
ENCODING 63151
SWIDTH 16000 0
DWIDTH 16 0
BBX 16 16 0 0
BITMAP
0000
0018
0008
0008
0008
0008
0008
7FE8
0408
0408
0478
0408
0408
0408
0008
0000
ENDCHAR
STARTCHAR U+F6B0
ENCODING 63152
SWIDTH 16000 0
DWIDTH 16 0
BBX 16 16 0 0
BITMAP
0000
006C
0024
0024
0024
0024
0024
7FA4
0824
0824
09E4
0824
0824
0024
0004
0000
ENDCHAR
STARTCHAR U+F6B1
ENCODING 63153
SWIDTH 16000 0
DWIDTH 16 0
BBX 16 16 0 0
BITMAP
0000
0018
0008
0008
0008
0008
0008
7FE8
0408
0408
0408
0408
0408
0408
0008
0000
ENDCHAR
STARTCHAR U+F6B2
ENCODING 63154
SWIDTH 16000 0
DWIDTH 16 0
BBX 16 16 0 0
BITMAP
0000
0000
0000
0000
0000
0000
0000
0000
7FFC
0440
0440
0440
0440
0440
0440
0000
ENDCHAR
STARTCHAR U+F6B3
ENCODING 63155
SWIDTH 16000 0
DWIDTH 16 0
BBX 16 16 0 0
BITMAP
0000
0000
0000
0000
0000
0000
0000
0000
0000
0000
3FFC
0000
0000
0000
0000
0000
ENDCHAR
STARTCHAR U+F6B4
ENCODING 63156
SWIDTH 16000 0
DWIDTH 16 0
BBX 16 16 0 0
BITMAP
0000
0018
0008
0008
0008
0008
0008
0008
3FE8
0008
0008
0008
0008
0008
0000
0000
ENDCHAR
STARTCHAR U+F6B5
ENCODING 63157
SWIDTH 16000 0
DWIDTH 16 0
BBX 16 16 0 0
BITMAP
0000
0018
0008
0008
0008
0008
0008
0008
0008
0008
0008
0008
0008
0008
0000
0000
ENDCHAR
STARTCHAR U+F6B6
ENCODING 63158
SWIDTH 16000 0
DWIDTH 16 0
BBX 16 16 0 0
BITMAP
0000
0000
0000
0000
0000
0000
0000
0000
0000
0000
0000
0000
0000
0000
0000
0000
ENDCHAR
STARTCHAR U+F6B7
ENCODING 63159
SWIDTH 16000 0
DWIDTH 16 0
BBX 16 16 0 0
BITMAP
0000
0018
0008
0008
000F
0008
0008
0008
0008
0008
0008
0008
0008
0008
0000
0000
ENDCHAR
STARTCHAR U+F6B8
ENCODING 63160
SWIDTH 16000 0
DWIDTH 16 0
BBX 16 16 0 0
BITMAP
0000
006C
0024
0024
0024
003C
0024
0024
0024
0024
0024
0024
0024
0004
0000
0000
ENDCHAR
STARTCHAR U+F6B9
ENCODING 63161
SWIDTH 16000 0
DWIDTH 16 0
BBX 16 16 0 0
BITMAP
0000
0018
0008
000F
0008
0008
000F
0008
0008
0008
0008
0008
0008
0008
0000
0000
ENDCHAR
STARTCHAR U+F6BA
ENCODING 63162
SWIDTH 16000 0
DWIDTH 16 0
BBX 16 16 0 0
BITMAP
0000
006C
0024
0024
003C
0024
0024
003C
0024
0024
0024
0024
0024
0004
0000
0000
ENDCHAR
STARTCHAR U+F6BB
ENCODING 63163
SWIDTH 16000 0
DWIDTH 16 0
BBX 16 16 0 0
BITMAP
0000
000C
0004
0004
003C
0004
0004
0004
0004
0004
0004
0004
0004
0004
0000
0000
ENDCHAR
STARTCHAR U+F6BC
ENCODING 63164
SWIDTH 16000 0
DWIDTH 16 0
BBX 16 16 0 0
BITMAP
0000
006C
0024
0024
01E4
0024
0024
0024
0024
0024
0024
0024
0024
0004
0000
0000
ENDCHAR
STARTCHAR U+F6BD
ENCODING 63165
SWIDTH 16000 0
DWIDTH 16 0
BBX 16 16 0 0
BITMAP
0000
000C
0004
003C
0004
003C
0004
0004
0004
0004
0004
0004
0004
0004
0000
0000
ENDCHAR
STARTCHAR U+F6BE
ENCODING 63166
SWIDTH 16000 0
DWIDTH 16 0
BBX 16 16 0 0
BITMAP
0000
006C
0024
01E4
0024
01E4
0024
0024
0024
0024
0024
0024
0024
0004
0000
0000
ENDCHAR
STARTCHAR U+F6BF
ENCODING 63167
SWIDTH 16000 0
DWIDTH 16 0
BBX 16 16 0 0
BITMAP
0000
0000
0000
0000
0000
0000
0000
0300
0100
0100
3FFC
0000
0000
0000
0000
0000
ENDCHAR
STARTCHAR U+F6C0
ENCODING 63168
SWIDTH 16000 0
DWIDTH 16 0
BBX 16 16 0 0
BITMAP
0000
0030
0010
0010
0010
0010
0010
041E
0410
3FD0
0010
0010
0010
0010
0000
0000
ENDCHAR
STARTCHAR U+F6C1
ENCODING 63169
SWIDTH 16000 0
DWIDTH 16 0
BBX 16 16 0 0
BITMAP
0000
006C
0024
0024
0024
003C
0024
0424
0424
3FE4
0024
0024
0024
0004
0000
0000
ENDCHAR
STARTCHAR U+F6C2
ENCODING 63170
SWIDTH 16000 0
DWIDTH 16 0
BBX 16 16 0 0
BITMAP
0000
0018
0008
0008
0008
0008
0008
0208
0208
3FF8
0008
0008
0008
0008
0000
0000
ENDCHAR
STARTCHAR U+F6C3
ENCODING 63171
SWIDTH 16000 0
DWIDTH 16 0
BBX 16 16 0 0
BITMAP
0000
0000
0000
0000
0000
0000
0000
0440
0440
0440
7FFC
0000
0000
0000
0000
0000
ENDCHAR
STARTCHAR U+F6C4
ENCODING 63172
SWIDTH 16000 0
DWIDTH 16 0
BBX 16 16 0 0
BITMAP
0000
0000
0000
0000
0000
0000
0000
0000
3FFC
0100
0100
0100
0100
0100
0100
0000
ENDCHAR
STARTCHAR U+F6C5
ENCODING 63173
SWIDTH 16000 0
DWIDTH 16 0
BBX 16 16 0 0
BITMAP
0000
0018
0008
0008
0008
0008
0008
7FE8
0408
0408
0478
0408
0408
0408
0008
0000
ENDCHAR
STARTCHAR U+F6C6
ENCODING 63174
SWIDTH 16000 0
DWIDTH 16 0
BBX 16 16 0 0
BITMAP
0000
006C
0024
0024
0024
0024
0024
7FA4
0824
0824
09E4
0824
0824
0024
0004
0000
ENDCHAR
STARTCHAR U+F6C7
ENCODING 63175
SWIDTH 16000 0
DWIDTH 16 0
BBX 16 16 0 0
BITMAP
0000
0018
0008
0008
0008
0008
0008
7FE8
0408
0408
0408
0408
0408
0408
0008
0000
ENDCHAR
STARTCHAR U+F6C8
ENCODING 63176
SWIDTH 16000 0
DWIDTH 16 0
BBX 16 16 0 0
BITMAP
0000
0000
0000
0000
0000
0000
0000
0000
7FFC
0440
0440
0440
0440
0440
0440
0000
ENDCHAR
STARTCHAR U+F6C9
ENCODING 63177
SWIDTH 16000 0
DWIDTH 16 0
BBX 16 16 0 0
BITMAP
0000
0000
0000
0000
0000
0000
0000
0000
0000
0000
3FFC
0000
0000
0000
0000
0000
ENDCHAR
STARTCHAR U+F6CA
ENCODING 63178
SWIDTH 16000 0
DWIDTH 16 0
BBX 16 16 0 0
BITMAP
0000
0018
0008
0008
0008
0008
0008
0008
3FE8
0008
0008
0008
0008
0008
0000
0000
ENDCHAR
STARTCHAR U+F6CB
ENCODING 63179
SWIDTH 16000 0
DWIDTH 16 0
BBX 16 16 0 0
BITMAP
0000
0018
0008
0008
0008
0008
0008
0008
0008
0008
0008
0008
0008
0008
0000
0000
ENDCHAR
STARTCHAR U+F6CC
ENCODING 63180
SWIDTH 16000 0
DWIDTH 16 0
BBX 16 16 0 0
BITMAP
0000
0000
0000
0000
0000
0000
0000
0000
0000
0000
0000
0000
0000
0000
0000
0000
ENDCHAR
STARTCHAR U+F6CD
ENCODING 63181
SWIDTH 16000 0
DWIDTH 16 0
BBX 16 16 0 0
BITMAP
0000
0018
0008
0008
000F
0008
0008
0008
0008
0000
0000
0000
0000
0000
0000
0000
ENDCHAR
STARTCHAR U+F6CE
ENCODING 63182
SWIDTH 16000 0
DWIDTH 16 0
BBX 16 16 0 0
BITMAP
0000
006C
0024
0024
003C
0024
0024
0024
0024
0000
0000
0000
0000
0000
0000
0000
ENDCHAR
STARTCHAR U+F6CF
ENCODING 63183
SWIDTH 16000 0
DWIDTH 16 0
BBX 16 16 0 0
BITMAP
0000
0018
0008
000F
0008
000F
0008
0008
0008
0000
0000
0000
0000
0000
0000
0000
ENDCHAR
STARTCHAR U+F6D0
ENCODING 63184
SWIDTH 16000 0
DWIDTH 16 0
BBX 16 16 0 0
BITMAP
0000
006C
0024
0024
003C
0024
003C
0024
0024
0000
0000
0000
0000
0000
0000
0000
ENDCHAR
STARTCHAR U+F6D1
ENCODING 63185
SWIDTH 16000 0
DWIDTH 16 0
BBX 16 16 0 0
BITMAP
0000
000C
0004
0004
003C
0004
0004
0004
0004
0000
0000
0000
0000
0000
0000
0000
ENDCHAR
STARTCHAR U+F6D2
ENCODING 63186
SWIDTH 16000 0
DWIDTH 16 0
BBX 16 16 0 0
BITMAP
0000
006C
0024
0024
01E4
0024
0024
0024
0024
0000
0000
0000
0000
0000
0000
0000
ENDCHAR
STARTCHAR U+F6D3
ENCODING 63187
SWIDTH 16000 0
DWIDTH 16 0
BBX 16 16 0 0
BITMAP
0000
000C
0004
003C
0004
003C
0004
0004
0004
0000
0000
0000
0000
0000
0000
0000
ENDCHAR
STARTCHAR U+F6D4
ENCODING 63188
SWIDTH 16000 0
DWIDTH 16 0
BBX 16 16 0 0
BITMAP
0000
006C
0024
00E4
0024
00E4
0024
0024
0024
0000
0000
0000
0000
0000
0000
0000
ENDCHAR
STARTCHAR U+F6D5
ENCODING 63189
SWIDTH 16000 0
DWIDTH 16 0
BBX 16 16 0 0
BITMAP
0000
0000
0000
0000
0000
0300
0100
0100
3FFC
0000
0000
0000
0000
0000
0000
0000
ENDCHAR
STARTCHAR U+F6D6
ENCODING 63190
SWIDTH 16000 0
DWIDTH 16 0
BBX 16 16 0 0
BITMAP
0000
0018
0008
0008
000F
0008
0208
0208
3FE8
0000
0000
0000
0000
0000
0000
0000
ENDCHAR
STARTCHAR U+F6D7
ENCODING 63191
SWIDTH 16000 0
DWIDTH 16 0
BBX 16 16 0 0
BITMAP
0000
006C
0024
0024
003C
0024
0424
0424
3FA4
0000
0000
0000
0000
0000
0000
0000
ENDCHAR
STARTCHAR U+F6D8
ENCODING 63192
SWIDTH 16000 0
DWIDTH 16 0
BBX 16 16 0 0
BITMAP
0000
0018
0008
0008
0008
0008
0408
0408
3FE8
0000
0000
0000
0000
0000
0000
0000
ENDCHAR
STARTCHAR U+F6D9
ENCODING 63193
SWIDTH 16000 0
DWIDTH 16 0
BBX 16 16 0 0
BITMAP
0000
0000
0000
0000
0000
0000
0440
0440
3FFC
0000
0000
0000
0000
0000
0000
0000
ENDCHAR
STARTCHAR U+F6DA
ENCODING 63194
SWIDTH 16000 0
DWIDTH 16 0
BBX 16 16 0 0
BITMAP
0000
0000
0000
0000
0000
0000
0000
3FFC
0100
0100
0100
0000
0000
0000
0000
0000
ENDCHAR
STARTCHAR U+F6DB
ENCODING 63195
SWIDTH 16000 0
DWIDTH 16 0
BBX 16 16 0 0
BITMAP
0000
0018
0008
0008
0038
0008
0008
3F88
0808
1000
0000
0000
0000
0000
0000
0000
ENDCHAR
STARTCHAR U+F6DC
ENCODING 63196
SWIDTH 16000 0
DWIDTH 16 0
BBX 16 16 0 0
BITMAP
0000
0034
0014
0014
0074
0014
0014
3F94
0814
1000
0000
0000
0000
0000
0000
0000
ENDCHAR
STARTCHAR U+F6DD
ENCODING 63197
SWIDTH 16000 0
DWIDTH 16 0
BBX 16 16 0 0
BITMAP
0000
0018
0008
0008
0008
0008
0008
3FE8
0808
1000
0000
0000
0000
0000
0000
0000
ENDCHAR
STARTCHAR U+F6DE
ENCODING 63198
SWIDTH 16000 0
DWIDTH 16 0
BBX 16 16 0 0
BITMAP
0000
0000
0000
0000
0000
0000
0000
3FF8
0440
0440
0440
0000
0000
0000
0000
0000
ENDCHAR
STARTCHAR U+F6DF
ENCODING 63199
SWIDTH 16000 0
DWIDTH 16 0
BBX 16 16 0 0
BITMAP
0000
0000
0000
0000
0000
0000
0000
0000
3FF8
0000
0000
0000
0000
0000
0000
0000
ENDCHAR
STARTCHAR U+F6E0
ENCODING 63200
SWIDTH 16000 0
DWIDTH 16 0
BBX 16 16 0 0
BITMAP
0000
0018
0008
0008
0008
0008
0008
0008
3FE8
0000
0000
0000
0000
0000
0000
0000
ENDCHAR
STARTCHAR U+F6E1
ENCODING 63201
SWIDTH 16000 0
DWIDTH 16 0
BBX 16 16 0 0
BITMAP
0000
0018
0008
0008
0008
0008
0008
0008
0008
0000
0000
0000
0000
0000
0000
0000
ENDCHAR
STARTCHAR U+F6E2
ENCODING 63202
SWIDTH 16000 0
DWIDTH 16 0
BBX 16 16 0 0
BITMAP
0000
0000
0000
0000
0000
0000
0000
0000
0000
0000
0000
0000
0000
0000
0000
0000
ENDCHAR
STARTCHAR U+F6E3
ENCODING 63203
SWIDTH 16000 0
DWIDTH 16 0
BBX 16 16 0 0
BITMAP
0000
0018
0008
0008
000F
0008
0008
0008
0008
0000
0000
0000
0000
0000
0000
0000
ENDCHAR
STARTCHAR U+F6E4
ENCODING 63204
SWIDTH 16000 0
DWIDTH 16 0
BBX 16 16 0 0
BITMAP
0000
006C
0024
0024
003C
0024
0024
0024
0024
0000
0000
0000
0000
0000
0000
0000
ENDCHAR
STARTCHAR U+F6E5
ENCODING 63205
SWIDTH 16000 0
DWIDTH 16 0
BBX 16 16 0 0
BITMAP
0000
0018
0008
000F
0008
000F
0008
0008
0008
0000
0000
0000
0000
0000
0000
0000
ENDCHAR
STARTCHAR U+F6E6
ENCODING 63206
SWIDTH 16000 0
DWIDTH 16 0
BBX 16 16 0 0
BITMAP
0000
006C
0024
0024
003C
0024
003C
0024
0024
0000
0000
0000
0000
0000
0000
0000
ENDCHAR
STARTCHAR U+F6E7
ENCODING 63207
SWIDTH 16000 0
DWIDTH 16 0
BBX 16 16 0 0
BITMAP
0000
000C
0004
0004
003C
0004
0004
0004
0004
0000
0000
0000
0000
0000
0000
0000
ENDCHAR
STARTCHAR U+F6E8
ENCODING 63208
SWIDTH 16000 0
DWIDTH 16 0
BBX 16 16 0 0
BITMAP
0000
006C
0024
0024
01E4
0024
0024
0024
0024
0000
0000
0000
0000
0000
0000
0000
ENDCHAR
STARTCHAR U+F6E9
ENCODING 63209
SWIDTH 16000 0
DWIDTH 16 0
BBX 16 16 0 0
BITMAP
0000
000C
0004
003C
0004
003C
0004
0004
0004
0000
0000
0000
0000
0000
0000
0000
ENDCHAR
STARTCHAR U+F6EA
ENCODING 63210
SWIDTH 16000 0
DWIDTH 16 0
BBX 16 16 0 0
BITMAP
0000
006C
0024
00E4
0024
00E4
0024
0024
0024
0000
0000
0000
0000
0000
0000
0000
ENDCHAR
STARTCHAR U+F6EB
ENCODING 63211
SWIDTH 16000 0
DWIDTH 16 0
BBX 16 16 0 0
BITMAP
0000
0000
0000
0000
0000
0300
0100
0100
3FFC
0000
0000
0000
0000
0000
0000
0000
ENDCHAR
STARTCHAR U+F6EC
ENCODING 63212
SWIDTH 16000 0
DWIDTH 16 0
BBX 16 16 0 0
BITMAP
0000
0018
0008
0008
000F
0008
0208
0208
3FE8
0000
0000
0000
0000
0000
0000
0000
ENDCHAR
STARTCHAR U+F6ED
ENCODING 63213
SWIDTH 16000 0
DWIDTH 16 0
BBX 16 16 0 0
BITMAP
0000
006C
0024
0024
003C
0024
0424
0424
3FA4
0000
0000
0000
0000
0000
0000
0000
ENDCHAR
STARTCHAR U+F6EE
ENCODING 63214
SWIDTH 16000 0
DWIDTH 16 0
BBX 16 16 0 0
BITMAP
0000
0018
0008
0008
0008
0008
0408
0408
3FE8
0000
0000
0000
0000
0000
0000
0000
ENDCHAR
STARTCHAR U+F6EF
ENCODING 63215
SWIDTH 16000 0
DWIDTH 16 0
BBX 16 16 0 0
BITMAP
0000
0000
0000
0000
0000
0000
0440
0440
3FFC
0000
0000
0000
0000
0000
0000
0000
ENDCHAR
STARTCHAR U+F6F0
ENCODING 63216
SWIDTH 16000 0
DWIDTH 16 0
BBX 16 16 0 0
BITMAP
0000
0000
0000
0000
0000
0000
0000
3FFC
0100
0100
0100
0000
0000
0000
0000
0000
ENDCHAR
STARTCHAR U+F6F1
ENCODING 63217
SWIDTH 16000 0
DWIDTH 16 0
BBX 16 16 0 0
BITMAP
0000
0018
0008
0008
0038
0008
0008
3F88
0808
1000
0000
0000
0000
0000
0000
0000
ENDCHAR
STARTCHAR U+F6F2
ENCODING 63218
SWIDTH 16000 0
DWIDTH 16 0
BBX 16 16 0 0
BITMAP
0000
0034
0014
0014
0074
0014
0014
3F94
0814
1000
0000
0000
0000
0000
0000
0000
ENDCHAR
STARTCHAR U+F6F3
ENCODING 63219
SWIDTH 16000 0
DWIDTH 16 0
BBX 16 16 0 0
BITMAP
0000
0018
0008
0008
0008
0008
0008
3FE8
0808
1000
0000
0000
0000
0000
0000
0000
ENDCHAR
STARTCHAR U+F6F4
ENCODING 63220
SWIDTH 16000 0
DWIDTH 16 0
BBX 16 16 0 0
BITMAP
0000
0000
0000
0000
0000
0000
0000
3FF8
0440
0440
0440
0000
0000
0000
0000
0000
ENDCHAR
STARTCHAR U+F6F5
ENCODING 63221
SWIDTH 16000 0
DWIDTH 16 0
BBX 16 16 0 0
BITMAP
0000
0000
0000
0000
0000
0000
0000
0000
3FF8
0000
0000
0000
0000
0000
0000
0000
ENDCHAR
STARTCHAR U+F6F6
ENCODING 63222
SWIDTH 16000 0
DWIDTH 16 0
BBX 16 16 0 0
BITMAP
0000
0018
0008
0008
0008
0008
0008
0008
3FE8
0000
0000
0000
0000
0000
0000
0000
ENDCHAR
STARTCHAR U+F6F7
ENCODING 63223
SWIDTH 16000 0
DWIDTH 16 0
BBX 16 16 0 0
BITMAP
0000
0018
0008
0008
0008
0008
0008
0008
0008
0000
0000
0000
0000
0000
0000
0000
ENDCHAR
STARTCHAR U+F6F8
ENCODING 63224
SWIDTH 16000 0
DWIDTH 16 0
BBX 16 16 0 0
BITMAP
0000
0000
0000
0000
0000
0000
0000
0000
0000
0000
0000
0000
0000
0000
0000
0000
ENDCHAR
STARTCHAR U+F6F9
ENCODING 63225
SWIDTH 16000 0
DWIDTH 16 0
BBX 16 16 0 0
BITMAP
0000
0000
0000
0000
0000
0000
0000
0000
0000
0000
07F8
0008
0008
0008
0008
0000
ENDCHAR
STARTCHAR U+F6FA
ENCODING 63226
SWIDTH 16000 0
DWIDTH 16 0
BBX 16 16 0 0
BITMAP
0000
0000
0000
0000
0000
0000
0000
0000
0000
0000
0F78
0108
0108
0108
0108
0000
ENDCHAR
STARTCHAR U+F6FB
ENCODING 63227
SWIDTH 16000 0
DWIDTH 16 0
BBX 16 16 0 0
BITMAP
0000
0000
0000
0000
0000
0000
0000
0000
0000
0000
0788
0088
0088
0094
00A2
0000
ENDCHAR
STARTCHAR U+F6FC
ENCODING 63228
SWIDTH 16000 0
DWIDTH 16 0
BBX 16 16 0 0
BITMAP
0000
0000
0000
0000
0000
0000
0000
0000
0000
0000
0300
0100
0100
0100
00FC
0000
ENDCHAR
STARTCHAR U+F6FD
ENCODING 63229
SWIDTH 16000 0
DWIDTH 16 0
BBX 16 16 0 0
BITMAP
0000
0000
0000
0000
0000
0000
0000
0000
0000
0000
0C7C
0410
0410
0428
03C4
0000
ENDCHAR
STARTCHAR U+F6FE
ENCODING 63230
SWIDTH 16000 0
DWIDTH 16 0
BBX 16 16 0 0
BITMAP
0000
0000
0000
0000
0000
0000
0000
0000
0000
0000
0C10
047C
0438
0444
03B8
0000
ENDCHAR
STARTCHAR U+F6FF
ENCODING 63231
SWIDTH 16000 0
DWIDTH 16 0
BBX 16 16 0 0
BITMAP
0000
0000
0000
0000
0000
0000
0000
0000
0000
0000
03FC
0100
0100
0100
00FC
0000
ENDCHAR
STARTCHAR U+F700
ENCODING 63232
SWIDTH 16000 0
DWIDTH 16 0
BBX 16 16 0 0
BITMAP
0000
0000
0000
0000
0000
0000
0000
0000
0000
0000
03F8
0008
03F8
0200
01F8
0000
ENDCHAR
STARTCHAR U+F701
ENCODING 63233
SWIDTH 16000 0
DWIDTH 16 0
BBX 16 16 0 0
BITMAP
0000
0000
0000
0000
0000
0000
0000
0000
0000
0000
07DC
0044
07C4
0404
03C4
0000
ENDCHAR
STARTCHAR U+F702
ENCODING 63234
SWIDTH 16000 0
DWIDTH 16 0
BBX 16 16 0 0
BITMAP
0000
0000
0000
0000
0000
0000
0000
0000
0000
0000
07BC
00A4
07A4
0424
03BC
0000
ENDCHAR
STARTCHAR U+F703
ENCODING 63235
SWIDTH 16000 0
DWIDTH 16 0
BBX 16 16 0 0
BITMAP
0000
0000
0000
0000
0000
0000
0000
0000
0000
0000
07A4
00A4
07BC
0424
03BC
0000
ENDCHAR
STARTCHAR U+F704
ENCODING 63236
SWIDTH 16000 0
DWIDTH 16 0
BBX 16 16 0 0
BITMAP
0000
0000
0000
0000
0000
0000
0000
0000
0000
0000
07C8
0048
07C8
0414
03E2
0000
ENDCHAR
STARTCHAR U+F705
ENCODING 63237
SWIDTH 16000 0
DWIDTH 16 0
BBX 16 16 0 0
BITMAP
0000
0000
0000
0000
0000
0000
0000
0000
0000
0000
07BC
00A0
07BC
0420
03BC
0000
ENDCHAR
STARTCHAR U+F706
ENCODING 63238
SWIDTH 16000 0
DWIDTH 16 0
BBX 16 16 0 0
BITMAP
0000
0000
0000
0000
0000
0000
0000
0000
0000
0000
07BE
0094
0794
0414
03BE
0000
ENDCHAR
STARTCHAR U+F707
ENCODING 63239
SWIDTH 16000 0
DWIDTH 16 0
BBX 16 16 0 0
BITMAP
0000
0000
0000
0000
0000
0000
0000
0000
0000
0000
07C8
007E
07DC
0422
03DC
0000
ENDCHAR
STARTCHAR U+F708
ENCODING 63240
SWIDTH 16000 0
DWIDTH 16 0
BBX 16 16 0 0
BITMAP
0000
0000
0000
0000
0000
0000
0000
0000
0000
0000
03F8
0208
0208
0208
03F8
0000
ENDCHAR
STARTCHAR U+F709
ENCODING 63241
SWIDTH 16000 0
DWIDTH 16 0
BBX 16 16 0 0
BITMAP
0000
0000
0000
0000
0000
0000
0000
0000
0000
0000
0208
0208
03F8
0208
03F8
0000
ENDCHAR
STARTCHAR U+F70A
ENCODING 63242
SWIDTH 16000 0
DWIDTH 16 0
BBX 16 16 0 0
BITMAP
0000
0000
0000
0000
0000
0000
0000
0000
0000
0000
0488
0488
0788
0494
07A2
0000
ENDCHAR
STARTCHAR U+F70B
ENCODING 63243
SWIDTH 16000 0
DWIDTH 16 0
BBX 16 16 0 0
BITMAP
0000
0000
0000
0000
0000
0000
0000
0000
0000
0000
0040
00A0
0110
0208
0404
0000
ENDCHAR
STARTCHAR U+F70C
ENCODING 63244
SWIDTH 16000 0
DWIDTH 16 0
BBX 16 16 0 0
BITMAP
0000
0000
0000
0000
0000
0000
0000
0000
0000
0000
0090
0090
0168
0244
0482
0000
ENDCHAR
STARTCHAR U+F70D
ENCODING 63245
SWIDTH 16000 0
DWIDTH 16 0
BBX 16 16 0 0
BITMAP
0000
0000
0000
0000
0000
0000
0000
0000
0000
0000
00F8
0104
0104
0104
00F8
0000
ENDCHAR
STARTCHAR U+F70E
ENCODING 63246
SWIDTH 16000 0
DWIDTH 16 0
BBX 16 16 0 0
BITMAP
0000
0000
0000
0000
0000
0000
0000
0000
0000
0000
03F8
0040
00A0
0110
0208
0000
ENDCHAR
STARTCHAR U+F70F
ENCODING 63247
SWIDTH 16000 0
DWIDTH 16 0
BBX 16 16 0 0
BITMAP
0000
0000
0000
0000
0000
0000
0000
0000
0000
0000
0040
03F8
00A0
0110
0208
0000
ENDCHAR
STARTCHAR U+F710
ENCODING 63248
SWIDTH 16000 0
DWIDTH 16 0
BBX 16 16 0 0
BITMAP
0000
0000
0000
0000
0000
0000
0000
0000
0000
0000
03F8
0008
03F8
0008
0008
0000
ENDCHAR
STARTCHAR U+F711
ENCODING 63249
SWIDTH 16000 0
DWIDTH 16 0
BBX 16 16 0 0
BITMAP
0000
0000
0000
0000
0000
0000
0000
0000
0000
0000
03F8
0100
01F8
0100
00F8
0000
ENDCHAR
STARTCHAR U+F712
ENCODING 63250
SWIDTH 16000 0
DWIDTH 16 0
BBX 16 16 0 0
BITMAP
0000
0000
0000
0000
0000
0000
0000
0000
0000
0000
03FC
0090
0090
0090
03FC
0000
ENDCHAR
STARTCHAR U+F713
ENCODING 63251
SWIDTH 16000 0
DWIDTH 16 0
BBX 16 16 0 0
BITMAP
0000
0000
0000
0000
0000
0000
0000
0000
0000
0000
0060
03FC
00F0
0108
00F0
0000
ENDCHAR
STARTCHAR U+F714
ENCODING 63252
SWIDTH 16000 0
DWIDTH 16 0
BBX 16 16 0 0
BITMAP
0000
0000
0000
0000
0000
0000
0000
0000
0000
0000
0000
0000
0000
0000
0000
0000
ENDCHAR
STARTCHAR U+F715
ENCODING 63253
SWIDTH 16000 0
DWIDTH 16 0
BBX 16 16 0 0
BITMAP
0000
0000
0000
0000
0000
0000
0000
0000
0000
0000
07F8
0008
0008
0008
0008
0000
ENDCHAR
STARTCHAR U+F716
ENCODING 63254
SWIDTH 16000 0
DWIDTH 16 0
BBX 16 16 0 0
BITMAP
0000
0000
0000
0000
0000
0000
0000
0000
0000
0000
0F78
0108
0108
0108
0108
0000
ENDCHAR
STARTCHAR U+F717
ENCODING 63255
SWIDTH 16000 0
DWIDTH 16 0
BBX 16 16 0 0
BITMAP
0000
0000
0000
0000
0000
0000
0000
0000
0000
0000
0788
0088
0088
0094
00A2
0000
ENDCHAR
STARTCHAR U+F718
ENCODING 63256
SWIDTH 16000 0
DWIDTH 16 0
BBX 16 16 0 0
BITMAP
0000
0000
0000
0000
0000
0000
0000
0000
0000
0000
0300
0100
0100
0100
00FC
0000
ENDCHAR
STARTCHAR U+F719
ENCODING 63257
SWIDTH 16000 0
DWIDTH 16 0
BBX 16 16 0 0
BITMAP
0000
0000
0000
0000
0000
0000
0000
0000
0000
0000
0C7C
0410
0410
0428
03C4
0000
ENDCHAR
STARTCHAR U+F71A
ENCODING 63258
SWIDTH 16000 0
DWIDTH 16 0
BBX 16 16 0 0
BITMAP
0000
0000
0000
0000
0000
0000
0000
0000
0000
0000
0C10
047C
0438
0444
03B8
0000
ENDCHAR
STARTCHAR U+F71B
ENCODING 63259
SWIDTH 16000 0
DWIDTH 16 0
BBX 16 16 0 0
BITMAP
0000
0000
0000
0000
0000
0000
0000
0000
0000
0000
03FC
0100
0100
0100
00FC
0000
ENDCHAR
STARTCHAR U+F71C
ENCODING 63260
SWIDTH 16000 0
DWIDTH 16 0
BBX 16 16 0 0
BITMAP
0000
0000
0000
0000
0000
0000
0000
0000
0000
0000
03F8
0008
03F8
0200
01F8
0000
ENDCHAR
STARTCHAR U+F71D
ENCODING 63261
SWIDTH 16000 0
DWIDTH 16 0
BBX 16 16 0 0
BITMAP
0000
0000
0000
0000
0000
0000
0000
0000
0000
0000
07DC
0044
07C4
0404
03C4
0000
ENDCHAR
STARTCHAR U+F71E
ENCODING 63262
SWIDTH 16000 0
DWIDTH 16 0
BBX 16 16 0 0
BITMAP
0000
0000
0000
0000
0000
0000
0000
0000
0000
0000
07BC
00A4
07A4
0424
03BC
0000
ENDCHAR
STARTCHAR U+F71F
ENCODING 63263
SWIDTH 16000 0
DWIDTH 16 0
BBX 16 16 0 0
BITMAP
0000
0000
0000
0000
0000
0000
0000
0000
0000
0000
07A4
00A4
07BC
0424
03BC
0000
ENDCHAR
STARTCHAR U+F720
ENCODING 63264
SWIDTH 16000 0
DWIDTH 16 0
BBX 16 16 0 0
BITMAP
0000
0000
0000
0000
0000
0000
0000
0000
0000
0000
07C8
0048
07C8
0414
03E2
0000
ENDCHAR
STARTCHAR U+F721
ENCODING 63265
SWIDTH 16000 0
DWIDTH 16 0
BBX 16 16 0 0
BITMAP
0000
0000
0000
0000
0000
0000
0000
0000
0000
0000
07BC
00A0
07BC
0420
03BC
0000
ENDCHAR
STARTCHAR U+F722
ENCODING 63266
SWIDTH 16000 0
DWIDTH 16 0
BBX 16 16 0 0
BITMAP
0000
0000
0000
0000
0000
0000
0000
0000
0000
0000
07BE
0094
0794
0414
03BE
0000
ENDCHAR
STARTCHAR U+F723
ENCODING 63267
SWIDTH 16000 0
DWIDTH 16 0
BBX 16 16 0 0
BITMAP
0000
0000
0000
0000
0000
0000
0000
0000
0000
0000
07C8
007E
07DC
0422
03DC
0000
ENDCHAR
STARTCHAR U+F724
ENCODING 63268
SWIDTH 16000 0
DWIDTH 16 0
BBX 16 16 0 0
BITMAP
0000
0000
0000
0000
0000
0000
0000
0000
0000
0000
03F8
0208
0208
0208
03F8
0000
ENDCHAR
STARTCHAR U+F725
ENCODING 63269
SWIDTH 16000 0
DWIDTH 16 0
BBX 16 16 0 0
BITMAP
0000
0000
0000
0000
0000
0000
0000
0000
0000
0000
0208
0208
03F8
0208
03F8
0000
ENDCHAR
STARTCHAR U+F726
ENCODING 63270
SWIDTH 16000 0
DWIDTH 16 0
BBX 16 16 0 0
BITMAP
0000
0000
0000
0000
0000
0000
0000
0000
0000
0000
0488
0488
0788
0494
07A2
0000
ENDCHAR
STARTCHAR U+F727
ENCODING 63271
SWIDTH 16000 0
DWIDTH 16 0
BBX 16 16 0 0
BITMAP
0000
0000
0000
0000
0000
0000
0000
0000
0000
0000
0040
00A0
0110
0208
0404
0000
ENDCHAR
STARTCHAR U+F728
ENCODING 63272
SWIDTH 16000 0
DWIDTH 16 0
BBX 16 16 0 0
BITMAP
0000
0000
0000
0000
0000
0000
0000
0000
0000
0000
0090
0090
0168
0244
0482
0000
ENDCHAR
STARTCHAR U+F729
ENCODING 63273
SWIDTH 16000 0
DWIDTH 16 0
BBX 16 16 0 0
BITMAP
0000
0000
0000
0000
0000
0000
0000
0000
0000
0000
00F8
0104
0104
0104
00F8
0000
ENDCHAR
STARTCHAR U+F72A
ENCODING 63274
SWIDTH 16000 0
DWIDTH 16 0
BBX 16 16 0 0
BITMAP
0000
0000
0000
0000
0000
0000
0000
0000
0000
0000
03F8
0040
00A0
0110
0208
0000
ENDCHAR
STARTCHAR U+F72B
ENCODING 63275
SWIDTH 16000 0
DWIDTH 16 0
BBX 16 16 0 0
BITMAP
0000
0000
0000
0000
0000
0000
0000
0000
0000
0000
0040
03F8
00A0
0110
0208
0000
ENDCHAR
STARTCHAR U+F72C
ENCODING 63276
SWIDTH 16000 0
DWIDTH 16 0
BBX 16 16 0 0
BITMAP
0000
0000
0000
0000
0000
0000
0000
0000
0000
0000
03F8
0008
03F8
0008
0008
0000
ENDCHAR
STARTCHAR U+F72D
ENCODING 63277
SWIDTH 16000 0
DWIDTH 16 0
BBX 16 16 0 0
BITMAP
0000
0000
0000
0000
0000
0000
0000
0000
0000
0000
03F8
0100
01F8
0100
00F8
0000
ENDCHAR
STARTCHAR U+F72E
ENCODING 63278
SWIDTH 16000 0
DWIDTH 16 0
BBX 16 16 0 0
BITMAP
0000
0000
0000
0000
0000
0000
0000
0000
0000
0000
03FC
0090
0090
0090
03FC
0000
ENDCHAR
STARTCHAR U+F72F
ENCODING 63279
SWIDTH 16000 0
DWIDTH 16 0
BBX 16 16 0 0
BITMAP
0000
0000
0000
0000
0000
0000
0000
0000
0000
0000
0060
03FC
00F0
0108
00F0
0000
ENDCHAR
STARTCHAR U+F730
ENCODING 63280
SWIDTH 16000 0
DWIDTH 16 0
BBX 16 16 0 0
BITMAP
0000
0000
0000
0000
0000
0000
0000
0000
0000
0000
0000
0000
0000
0000
0000
0000
ENDCHAR
STARTCHAR U+F731
ENCODING 63281
SWIDTH 16000 0
DWIDTH 16 0
BBX 16 16 0 0
BITMAP
0000
0000
0000
0000
0000
0000
0000
0000
0000
0000
03FC
0004
0004
0004
0004
0000
ENDCHAR
STARTCHAR U+F732
ENCODING 63282
SWIDTH 16000 0
DWIDTH 16 0
BBX 16 16 0 0
BITMAP
0000
0000
0000
0000
0000
0000
0000
0000
0000
0000
0FBC
0084
0084
0084
0084
0000
ENDCHAR
STARTCHAR U+F733
ENCODING 63283
SWIDTH 16000 0
DWIDTH 16 0
BBX 16 16 0 0
BITMAP
0000
0000
0000
0000
0000
0000
0000
0000
0000
0000
0F88
0088
0088
0094
00A2
0000
ENDCHAR
STARTCHAR U+F734
ENCODING 63284
SWIDTH 16000 0
DWIDTH 16 0
BBX 16 16 0 0
BITMAP
0000
0000
0000
0000
0000
0000
0000
0000
0000
0000
0300
0100
0100
0100
00FE
0000
ENDCHAR
STARTCHAR U+F735
ENCODING 63285
SWIDTH 16000 0
DWIDTH 16 0
BBX 16 16 0 0
BITMAP
0000
0000
0000
0000
0000
0000
0000
0000
0000
0000
063E
0208
0208
0214
01E2
0000
ENDCHAR
STARTCHAR U+F736
ENCODING 63286
SWIDTH 16000 0
DWIDTH 16 0
BBX 16 16 0 0
BITMAP
0000
0000
0000
0000
0000
0000
0000
0000
0000
0000
0C08
043E
041C
0422
03DC
0000
ENDCHAR
STARTCHAR U+F737
ENCODING 63287
SWIDTH 16000 0
DWIDTH 16 0
BBX 16 16 0 0
BITMAP
0000
0000
0000
0000
0000
0000
0000
0000
0000
0000
03FC
0100
0100
0100
00FC
0000
ENDCHAR
STARTCHAR U+F738
ENCODING 63288
SWIDTH 16000 0
DWIDTH 16 0
BBX 16 16 0 0
BITMAP
0000
0000
0000
0000
0000
0000
0000
0000
0000
0000
03FC
0004
03FC
0200
01FC
0000
ENDCHAR
STARTCHAR U+F739
ENCODING 63289
SWIDTH 16000 0
DWIDTH 16 0
BBX 16 16 0 0
BITMAP
0000
0000
0000
0000
0000
0000
0000
0000
0000
0000
0FBC
0084
0F84
0804
0784
0000
ENDCHAR
STARTCHAR U+F73A
ENCODING 63290
SWIDTH 16000 0
DWIDTH 16 0
BBX 16 16 0 0
BITMAP
0000
0000
0000
0000
0000
0000
0000
0000
0000
0000
0FBC
00A4
0FA4
0824
07BC
0000
ENDCHAR
STARTCHAR U+F73B
ENCODING 63291
SWIDTH 16000 0
DWIDTH 16 0
BBX 16 16 0 0
BITMAP
0000
0000
0000
0000
0000
0000
0000
0000
0000
0000
0FA4
00A4
0FBC
0824
07BC
0000
ENDCHAR
STARTCHAR U+F73C
ENCODING 63292
SWIDTH 16000 0
DWIDTH 16 0
BBX 16 16 0 0
BITMAP
0000
0000
0000
0000
0000
0000
0000
0000
0000
0000
0F88
0088
0F88
0814
07A2
0000
ENDCHAR
STARTCHAR U+F73D
ENCODING 63293
SWIDTH 16000 0
DWIDTH 16 0
BBX 16 16 0 0
BITMAP
0000
0000
0000
0000
0000
0000
0000
0000
0000
0000
0FBC
00A0
0FBC
0820
07BC
0000
ENDCHAR
STARTCHAR U+F73E
ENCODING 63294
SWIDTH 16000 0
DWIDTH 16 0
BBX 16 16 0 0
BITMAP
0000
0000
0000
0000
0000
0000
0000
0000
0000
0000
0FBE
0094
0F94
0814
07BE
0000
ENDCHAR
STARTCHAR U+F73F
ENCODING 63295
SWIDTH 16000 0
DWIDTH 16 0
BBX 16 16 0 0
BITMAP
0000
0000
0000
0000
0000
0000
0000
0000
0000
0000
0F88
00BE
0F9C
0822
079C
0000
ENDCHAR
STARTCHAR U+F740
ENCODING 63296
SWIDTH 16000 0
DWIDTH 16 0
BBX 16 16 0 0
BITMAP
0000
0000
0000
0000
0000
0000
0000
0000
0000
0000
03FC
0204
0204
0204
03FC
0000
ENDCHAR
STARTCHAR U+F741
ENCODING 63297
SWIDTH 16000 0
DWIDTH 16 0
BBX 16 16 0 0
BITMAP
0000
0000
0000
0000
0000
0000
0000
0000
0000
0000
0204
0204
03FC
0204
03FC
0000
ENDCHAR
STARTCHAR U+F742
ENCODING 63298
SWIDTH 16000 0
DWIDTH 16 0
BBX 16 16 0 0
BITMAP
0000
0000
0000
0000
0000
0000
0000
0000
0000
0000
0448
0448
07C8
0454
07E2
0000
ENDCHAR
STARTCHAR U+F743
ENCODING 63299
SWIDTH 16000 0
DWIDTH 16 0
BBX 16 16 0 0
BITMAP
0000
0000
0000
0000
0000
0000
0000
0000
0000
0000
0040
00A0
0110
0208
0404
0000
ENDCHAR
STARTCHAR U+F744
ENCODING 63300
SWIDTH 16000 0
DWIDTH 16 0
BBX 16 16 0 0
BITMAP
0000
0000
0000
0000
0000
0000
0000
0000
0000
0000
0090
0090
01F8
0244
0482
0000
ENDCHAR
STARTCHAR U+F745
ENCODING 63301
SWIDTH 16000 0
DWIDTH 16 0
BBX 16 16 0 0
BITMAP
0000
0000
0000
0000
0000
0000
0000
0000
0000
0000
00F8
0104
0104
0104
00F8
0000
ENDCHAR
STARTCHAR U+F746
ENCODING 63302
SWIDTH 16000 0
DWIDTH 16 0
BBX 16 16 0 0
BITMAP
0000
0000
0000
0000
0000
0000
0000
0000
0000
0000
07FC
00A0
0110
0208
0404
0000
ENDCHAR
STARTCHAR U+F747
ENCODING 63303
SWIDTH 16000 0
DWIDTH 16 0
BBX 16 16 0 0
BITMAP
0000
0000
0000
0000
0000
0000
0000
0000
0000
0000
0040
07FC
0110
0208
0404
0000
ENDCHAR
STARTCHAR U+F748
ENCODING 63304
SWIDTH 16000 0
DWIDTH 16 0
BBX 16 16 0 0
BITMAP
0000
0000
0000
0000
0000
0000
0000
0000
0000
0000
03FC
0004
03FC
0004
0004
0000
ENDCHAR
STARTCHAR U+F749
ENCODING 63305
SWIDTH 16000 0
DWIDTH 16 0
BBX 16 16 0 0
BITMAP
0000
0000
0000
0000
0000
0000
0000
0000
0000
0000
03FC
0100
01FC
0100
00FC
0000
ENDCHAR
STARTCHAR U+F74A
ENCODING 63306
SWIDTH 16000 0
DWIDTH 16 0
BBX 16 16 0 0
BITMAP
0000
0000
0000
0000
0000
0000
0000
0000
0000
0000
07FC
0110
0110
0110
07FC
0000
ENDCHAR
STARTCHAR U+F74B
ENCODING 63307
SWIDTH 16000 0
DWIDTH 16 0
BBX 16 16 0 0
BITMAP
0000
0000
0000
0000
0000
0000
0000
0000
0000
0000
0060
07FE
01F8
0204
01F8
0000
ENDCHAR
STARTCHAR U+F74C
ENCODING 63308
SWIDTH 16000 0
DWIDTH 16 0
BBX 16 16 0 0
BITMAP
0000
0000
0000
0000
0000
0000
0000
0000
0000
0000
0000
0000
0000
0000
0000
0000
ENDCHAR
STARTCHAR U+F74D
ENCODING 63309
SWIDTH 16000 0
DWIDTH 16 0
BBX 16 16 0 0
BITMAP
0000
0000
0000
0000
0000
0000
0000
0000
0000
0000
1FF0
0010
0010
0010
0010
0000
ENDCHAR
STARTCHAR U+F74E
ENCODING 63310
SWIDTH 16000 0
DWIDTH 16 0
BBX 16 16 0 0
BITMAP
0000
0000
0000
0000
0000
0000
0000
0000
0000
0000
1EF0
0210
0210
0210
0210
0000
ENDCHAR
STARTCHAR U+F74F
ENCODING 63311
SWIDTH 16000 0
DWIDTH 16 0
BBX 16 16 0 0
BITMAP
0000
0000
0000
0000
0000
0000
0000
0000
0000
0000
1E20
0220
0220
0250
0288
0000
ENDCHAR
STARTCHAR U+F750
ENCODING 63312
SWIDTH 16000 0
DWIDTH 16 0
BBX 16 16 0 0
BITMAP
0000
0000
0000
0000
0000
0000
0000
0000
0000
0000
1800
0800
0800
0800
07F8
0000
ENDCHAR
STARTCHAR U+F751
ENCODING 63313
SWIDTH 16000 0
DWIDTH 16 0
BBX 16 16 0 0
BITMAP
0000
0000
0000
0000
0000
0000
0000
0000
0000
0000
30F8
1020
1020
1050
0E88
0000
ENDCHAR
STARTCHAR U+F752
ENCODING 63314
SWIDTH 16000 0
DWIDTH 16 0
BBX 16 16 0 0
BITMAP
0000
0000
0000
0000
0000
0000
0000
0000
0000
0000
3020
10F8
1070
1088
0E70
0000
ENDCHAR
STARTCHAR U+F753
ENCODING 63315
SWIDTH 16000 0
DWIDTH 16 0
BBX 16 16 0 0
BITMAP
0000
0000
0000
0000
0000
0000
0000
0000
0000
0000
1FF0
0800
0800
0800
07F0
0000
ENDCHAR
STARTCHAR U+F754
ENCODING 63316
SWIDTH 16000 0
DWIDTH 16 0
BBX 16 16 0 0
BITMAP
0000
0000
0000
0000
0000
0000
0000
0000
0000
0000
1FF0
0010
1FF0
1000
0FF0
0000
ENDCHAR
STARTCHAR U+F755
ENCODING 63317
SWIDTH 16000 0
DWIDTH 16 0
BBX 16 16 0 0
BITMAP
0000
0000
0000
0000
0000
0000
0000
0000
0000
0000
1F78
0108
1F08
1008
0F08
0000
ENDCHAR
STARTCHAR U+F756
ENCODING 63318
SWIDTH 16000 0
DWIDTH 16 0
BBX 16 16 0 0
BITMAP
0000
0000
0000
0000
0000
0000
0000
0000
0000
0000
1F78
0148
1F48
1048
0F78
0000
ENDCHAR
STARTCHAR U+F757
ENCODING 63319
SWIDTH 16000 0
DWIDTH 16 0
BBX 16 16 0 0
BITMAP
0000
0000
0000
0000
0000
0000
0000
0000
0000
0000
1F48
0148
1F78
1048
0F78
0000
ENDCHAR
STARTCHAR U+F758
ENCODING 63320
SWIDTH 16000 0
DWIDTH 16 0
BBX 16 16 0 0
BITMAP
0000
0000
0000
0000
0000
0000
0000
0000
0000
0000
1F10
0110
1F10
1028
0F44
0000
ENDCHAR
STARTCHAR U+F759
ENCODING 63321
SWIDTH 16000 0
DWIDTH 16 0
BBX 16 16 0 0
BITMAP
0000
0000
0000
0000
0000
0000
0000
0000
0000
0000
1F78
0140
1F78
1040
0F78
0000
ENDCHAR
STARTCHAR U+F75A
ENCODING 63322
SWIDTH 16000 0
DWIDTH 16 0
BBX 16 16 0 0
BITMAP
0000
0000
0000
0000
0000
0000
0000
0000
0000
0000
1EF8
0250
1E50
1050
0EF8
0000
ENDCHAR
STARTCHAR U+F75B
ENCODING 63323
SWIDTH 16000 0
DWIDTH 16 0
BBX 16 16 0 0
BITMAP
0000
0000
0000
0000
0000
0000
0000
0000
0000
0000
1E20
02F8
1E70
1088
0E70
0000
ENDCHAR
STARTCHAR U+F75C
ENCODING 63324
SWIDTH 16000 0
DWIDTH 16 0
BBX 16 16 0 0
BITMAP
0000
0000
0000
0000
0000
0000
0000
0000
0000
0000
1FF0
0810
0810
0810
0FF0
0000
ENDCHAR
STARTCHAR U+F75D
ENCODING 63325
SWIDTH 16000 0
DWIDTH 16 0
BBX 16 16 0 0
BITMAP
0000
0000
0000
0000
0000
0000
0000
0000
0000
0000
1810
0810
0FF0
0810
0FF0
0000
ENDCHAR
STARTCHAR U+F75E
ENCODING 63326
SWIDTH 16000 0
DWIDTH 16 0
BBX 16 16 0 0
BITMAP
0000
0000
0000
0000
0000
0000
0000
0000
0000
0000
1120
1120
1F20
1150
1F88
0000
ENDCHAR
STARTCHAR U+F75F
ENCODING 63327
SWIDTH 16000 0
DWIDTH 16 0
BBX 16 16 0 0
BITMAP
0000
0000
0000
0000
0000
0000
0000
0000
0000
0000
0100
0280
0440
0820
1010
0000
ENDCHAR
STARTCHAR U+F760
ENCODING 63328
SWIDTH 16000 0
DWIDTH 16 0
BBX 16 16 0 0
BITMAP
0000
0000
0000
0000
0000
0000
0000
0000
0000
0000
0240
0240
05A0
0910
1208
0000
ENDCHAR
STARTCHAR U+F761
ENCODING 63329
SWIDTH 16000 0
DWIDTH 16 0
BBX 16 16 0 0
BITMAP
0000
0000
0000
0000
0000
0000
0000
0000
0000
0000
07E0
0810
0810
0810
07E0
0000
ENDCHAR
STARTCHAR U+F762
ENCODING 63330
SWIDTH 16000 0
DWIDTH 16 0
BBX 16 16 0 0
BITMAP
0000
0000
0000
0000
0000
0000
0000
0000
0000
0000
0000
1FF0
0440
0820
1010
0000
ENDCHAR
STARTCHAR U+F763
ENCODING 63331
SWIDTH 16000 0
DWIDTH 16 0
BBX 16 16 0 0
BITMAP
0000
0000
0000
0000
0000
0000
0000
0000
0000
0000
0100
1FF0
0440
0820
1010
0000
ENDCHAR
STARTCHAR U+F764
ENCODING 63332
SWIDTH 16000 0
DWIDTH 16 0
BBX 16 16 0 0
BITMAP
0000
0000
0000
0000
0000
0000
0000
0000
0000
0000
1FF0
0010
1FF0
0010
0010
0000
ENDCHAR
STARTCHAR U+F765
ENCODING 63333
SWIDTH 16000 0
DWIDTH 16 0
BBX 16 16 0 0
BITMAP
0000
0000
0000
0000
0000
0000
0000
0000
0000
0000
1FF0
0800
0FF0
0800
07F0
0000
ENDCHAR
STARTCHAR U+F766
ENCODING 63334
SWIDTH 16000 0
DWIDTH 16 0
BBX 16 16 0 0
BITMAP
0000
0000
0000
0000
0000
0000
0000
0000
0000
0000
1FF0
0440
0440
0440
1FF0
0000
ENDCHAR
STARTCHAR U+F767
ENCODING 63335
SWIDTH 16000 0
DWIDTH 16 0
BBX 16 16 0 0
BITMAP
0000
0000
0000
0000
0000
0000
0000
0000
0000
0000
0100
1FF0
07C0
0820
07C0
0000
ENDCHAR
ENDFONT
